<?xml version="1.0" encoding="UTF-8"?>
<svg version="1.1" xmlns="http://www.w3.org/2000/svg" width="772" height="958">
<path d="M0 0 C254.76 0 509.52 0 772 0 C772 316.14 772 632.28 772 958 C517.24 958 262.48 958 0 958 C0 641.86 0 325.72 0 0 Z " fill="#FEFEFE" transform="translate(0,0)"/>
<path d="M0 0 C0.495 0.495 0.495 0.495 1 1 C2.34169534 1.10651142 3.68880099 1.14617623 5.03466797 1.15771484 C5.89422089 1.16797699 6.7537738 1.17823914 7.63937378 1.18881226 C8.58080231 1.19611359 9.52223083 1.20341492 10.4921875 1.2109375 C12.49870511 1.23907507 14.50521538 1.26773967 16.51171875 1.296875 C19.66389199 1.33761705 22.81593833 1.37449655 25.96826172 1.40136719 C43.40688615 1.56281016 59.80261753 3.46727057 76.79296875 7.32421875 C79.93890957 7.98712711 83.06538583 8.44202196 86.25 8.875 C92.19327215 9.8366435 96.82218337 12.00187715 102 15 C103.19882812 15.64775391 103.19882812 15.64775391 104.421875 16.30859375 C110.5973237 19.77982526 115.84229324 24.06936878 121.140625 28.73046875 C123.99185062 30.9935317 126.73271469 32.42431839 130 34 C132.80614064 35.88441561 135.49561486 37.88684124 138.203125 39.91015625 C139.89947469 41.17768011 141.61404873 42.42190434 143.359375 43.62109375 C149.34920083 47.87981743 153.36560954 53.03115195 157.640625 58.9140625 C161.65298608 64.61552658 161.65298608 64.61552658 167.625 67.48046875 C170 68 170 68 171.625 70.30078125 C172.07875 71.29464844 172.5325 72.28851563 173 73.3125 C173.50660156 74.40433594 174.01320313 75.49617188 174.53515625 76.62109375 C176.29098834 80.6712131 177.97964703 84.74453567 179.63671875 88.8359375 C181.71634996 93.66258873 184.13019339 98.30350376 186.546875 102.96875 C188.53435848 107.11468328 189.12972613 110.17862289 189.0625 114.75 C189.04896484 115.94882813 189.04896484 115.94882813 189.03515625 117.171875 C189.02355469 117.77515625 189.01195312 118.3784375 189 119 C189.66 119 190.32 119 191 119 C191 118.34 191 117.68 191 117 C191.99 117.33 192.98 117.66 194 118 C196.3408558 125.18977137 196.95981826 132.73859202 197.85546875 140.21875 C197.97535156 141.16234375 198.09523438 142.1059375 198.21875 143.078125 C198.32123047 143.92793945 198.42371094 144.77775391 198.52929688 145.65332031 C199.01453133 148.0724456 199.8578651 149.82827942 201 152 C201.4254564 154.13284354 201.77137662 156.2822084 202.0625 158.4375 C202.21847656 159.54996094 202.37445312 160.66242188 202.53515625 161.80859375 C202.69692776 163.20495553 202.85110264 164.60220681 203 166 C203.08975098 166.82258301 203.17950195 167.64516602 203.27197266 168.49267578 C204.36838552 180.29639983 204.2410598 192.15611036 204.25 204 C204.25167175 205.16575562 204.25334351 206.33151123 204.25506592 207.53259277 C204.25637497 222.82073308 203.92091538 238.01365826 202.625 253.25 C202.56187622 254.0037793 202.49875244 254.75755859 202.43371582 255.53417969 C201.8351994 262.46945512 201.1192536 269.2927599 199.44628906 276.06298828 C198.70550664 279.27817849 198.41112894 282.53538799 198.0625 285.8125 C196.39534872 300.11276515 196.39534872 300.11276515 194 306 C193.01 306.33 192.02 306.66 191 307 C190.47212891 305.93458984 190.47212891 305.93458984 189.93359375 304.84765625 C188.43483297 302.05753501 186.95448563 299.49499603 185 297 C182.6693782 296.64820803 180.33564933 296.31669821 178 296 C175.49869097 293.67640387 173.37839667 291.1663699 171.1953125 288.54296875 C169.33658989 286.38989327 167.63398316 284.81163989 165.375 283.125 C162.1500675 280.53617804 160.56949102 277.63031122 158.625 274 C155.3037569 267.98164002 151.8645475 265.33235946 146 262 C133.07616361 253.15232722 133.07616361 253.15232722 130 247 C126.77680586 246.85008399 124.44390284 246.81594273 121.4375 248.0625 C119 249 119 249 116.4375 249.125 C112.5601082 247.33543456 111.5571298 243.81888259 110 240 C109.40832031 240.03480469 108.81664062 240.06960938 108.20703125 240.10546875 C103.3183354 240.27294446 99.93164461 240.29750838 96 237 C96 236.34 96 235.68 96 235 C94.99839844 235.04640625 93.99679687 235.0928125 92.96484375 235.140625 C80.85837651 235.53022344 80.85837651 235.53022344 77.3125 233 C72.90798319 230.34066909 69.51695555 230.72564844 64.4765625 230.95703125 C63.65929687 230.97121094 62.84203125 230.98539063 62 231 C61.67 230.67 61.34 230.34 61 230 C59.04469236 229.87451011 57.08429521 229.82424637 55.125 229.8125 C54.05507813 229.79832031 52.98515625 229.78414062 51.8828125 229.76953125 C48.80203566 229.7805222 48.80203566 229.7805222 46 232 C43.80859375 232.23046875 43.80859375 232.23046875 41.4375 232.1875 C40.65246094 232.18105469 39.86742187 232.17460937 39.05859375 232.16796875 C37 232 37 232 35 231 C32.98525281 231.02392975 32.98525281 231.02392975 30.75 231.3125 C30.00234375 231.39113281 29.2546875 231.46976563 28.484375 231.55078125 C25.89533187 231.94520051 25.89533187 231.94520051 23.140625 233.05078125 C18.5247625 234.44587402 14.20930539 233.94129964 9.4375 233.6796875 C5.91487935 233.70120516 5.91487935 233.70120516 3.40307617 235.98413086 C-1.14261528 238.67684729 -4.70060185 238.58521335 -9.88671875 238.57421875 C-10.82554398 238.58838333 -11.7643692 238.60254791 -12.73164368 238.61714172 C-15.71704696 238.65891722 -18.70184604 238.67426038 -21.6875 238.6875 C-24.68358497 238.71657421 -27.67951808 238.75111452 -30.67549133 238.78999329 C-32.53625104 238.81244754 -34.39710481 238.82828708 -36.25798035 238.83683777 C-37.09927994 238.84387222 -37.94057953 238.85090668 -38.80737305 238.8581543 C-39.54650436 238.86163376 -40.28563568 238.86511322 -41.04716492 238.86869812 C-43.21639149 238.93220111 -43.21639149 238.93220111 -46 240 C-58.45593639 240.81522871 -67.68542051 238.48082989 -78.6015625 232.73046875 C-82.16769902 230.91460843 -85.73560493 229.48893289 -89.5234375 228.21484375 C-97.0641461 224.51585262 -101.71507875 219.3342584 -106.125 212.3125 C-106.63708008 211.50578857 -107.14916016 210.69907715 -107.67675781 209.86791992 C-108.67967912 208.27910999 -109.67668939 206.68654927 -110.66699219 205.08984375 C-111.73997329 203.40766093 -112.90725513 201.78582957 -114.1015625 200.1875 C-120.16283581 191.45467021 -119.22548141 179.18625838 -118 169 C-116.00284215 160.00284215 -116.00284215 160.00284215 -113 157 C-112.7525 156.195625 -112.505 155.39125 -112.25 154.5625 C-110.55886925 151.09568196 -108.39832925 150.69916462 -105 149 C-103.64721885 147.01310269 -102.31431695 145.01254782 -101 143 C-100.07960938 142.39671875 -99.15921875 141.7934375 -98.2109375 141.171875 C-94.76740492 138.84267292 -92.38907821 136.27986316 -89.625 133.1875 C-84.87521251 128.12159899 -84.87521251 128.12159899 -81.72265625 127.68359375 C-79.80976072 128.0984828 -77.90448871 128.54808742 -76 129 C-74.53581487 127.75862565 -73.07234408 126.50955154 -71.71875 125.1484375 C-68.28139118 122.85165683 -63.96307003 123.64755306 -60 124 C-59.731875 123.05125 -59.46375 122.1025 -59.1875 121.125 C-58 118 -58 118 -55 116 C-48.43396226 116.56603774 -48.43396226 116.56603774 -47 118 C-43.91691347 118.37370746 -42.50903849 118.39126096 -40.0078125 116.46875 C-39.38648438 115.8190625 -38.76515625 115.169375 -38.125 114.5 C-35.24319237 111.82442343 -34.30698712 111.05723489 -30.3125 110.3125 C-26.54698282 111.09402243 -24.73705707 112.34588406 -22 115 C-21.71125 114.38125 -21.4225 113.7625 -21.125 113.125 C-20 111 -20 111 -18 109 C-14.30362323 108.57018875 -12.25075531 108.88030399 -8.86987305 110.49414062 C-4.51442757 112.42210269 -0.47471661 112.4235217 4.23046875 112.40625 C5.53797844 112.42250427 5.53797844 112.42250427 6.87190247 112.43908691 C9.64384391 112.47315185 12.41537755 112.48888735 15.1875 112.5 C36.81802329 112.58754985 36.81802329 112.58754985 45.5390625 115.31860352 C48.32381428 116.08965929 50.93147164 116.29487483 53.8125 116.4375 C58.06740477 116.72156324 60.36199644 117.67459758 63.93359375 120.1015625 C66.90523886 121.39358211 69.64948571 121.28530655 72.875 121.375 C79.73570179 121.68884061 84.02297249 123.24174293 89 128 C90.61915878 129.95446142 91.77390275 131.76103981 93 134 C95.96175123 133.38722388 97.38058783 132.74627478 100 131 C102.0625 131.15234375 102.0625 131.15234375 104 132 C105.125 133.56640625 105.125 133.56640625 106 135.5625 C106.33386719 136.28308594 106.66773438 137.00367188 107.01171875 137.74609375 C107.64638661 139.19353784 108.27456701 140.64385364 108.89453125 142.09765625 C111.66853632 148.22407596 115.52741308 152.16860439 121.49609375 155.31640625 C124.5499639 157.36978852 125.79247137 159.45363767 127.625 162.625 C129.87620964 166.91801938 129.87620964 166.91801938 134 169 C132.95012283 166.45245944 131.88578599 163.91266585 130.8125 161.375 C130.52052734 160.66214844 130.22855469 159.94929687 129.92773438 159.21484375 C127.886206 154.42932562 125.40748359 150.9807552 122 147 C120.13189076 143.6249752 118.44116027 140.19498115 116.74609375 136.73046875 C115.322753 133.84629168 115.322753 133.84629168 112.91015625 133.38671875 C112.27980469 133.25910156 111.64945313 133.13148438 111 133 C109.875 131.0390625 109.875 131.0390625 109 128.625 C107.10040075 123.86326661 107.10040075 123.86326661 103 121 C101.88625 120.87625 100.7725 120.7525 99.625 120.625 C95.77723757 119.96159268 94.46359693 118.88038685 91.6796875 116.26953125 C89.04191275 114.27586429 86.10806859 113.55036595 82.953125 112.67578125 C81 112 81 112 79 110 C77.906875 109.9175 76.81375 109.835 75.6875 109.75 C70.71598903 108.73884523 69.78123029 107.12970558 67 103 C67 102.34 67 101.68 67 101 C66.278125 101.103125 65.55625 101.20625 64.8125 101.3125 C60.8426297 100.8714033 59.49596932 98.99516318 57 96 C57 95.34 57 94.68 57 94 C54.29561004 94.36405249 53.25593617 94.68142682 51.515625 96.84765625 C51.09796875 97.57855469 50.6803125 98.30945313 50.25 99.0625 C49.82203125 99.79597656 49.3940625 100.52945313 48.953125 101.28515625 C48.63859375 101.85105469 48.3240625 102.41695313 48 103 C44.28407644 102.42895607 42.67461761 100.94467225 40.0625 98.3125 C28.35399215 87.74443123 15.72505496 86.61421676 0.67578125 87.109375 C-3.10920612 86.95466019 -5.10858165 85.340672 -8 83 C-8 82.34 -8 81.68 -8 81 C-9.9490625 81.2165625 -9.9490625 81.2165625 -11.9375 81.4375 C-12.66839844 81.51871094 -13.39929688 81.59992188 -14.15234375 81.68359375 C-16.01140229 81.81886614 -16.01140229 81.81886614 -17 83 C-20.55190842 83.23780046 -24.09692784 83.39593331 -27.65429688 83.51757812 C-31.64808609 83.69958228 -34.48152705 83.95912242 -38 86 C-44.34375 86.328125 -44.34375 86.328125 -47 85 C-50.43142384 84.73359137 -53.87188717 84.76843597 -57.3125 84.75 C-58.26318359 84.729375 -59.21386719 84.70875 -60.19335938 84.6875 C-65.48854706 84.65789727 -68.53947122 84.9374268 -73 88 C-75.54296875 88.15234375 -75.54296875 88.15234375 -78.1875 87.9375 C-83.32989695 87.78605056 -86.79823701 88.8120189 -91.44140625 90.921875 C-95.074662 92.45283467 -98.81882138 93.30335287 -102.65234375 94.19140625 C-105.05438718 94.80806492 -105.05438718 94.80806492 -106.41796875 96.5625 C-108.88095194 98.80046991 -111.12193342 98.43377796 -114.375 98.4375 C-115.49648438 98.45683594 -116.61796875 98.47617188 -117.7734375 98.49609375 C-121.63873963 97.90179185 -123.29232906 96.78246848 -126 94 C-126.86670118 88.89609306 -125.66966791 86.20364906 -123.08569336 81.86254883 C-122.07912438 80.13574092 -121.17512322 78.35024644 -120.28125 76.5625 C-115.32165776 66.64331551 -109.13137566 58.4525874 -102 50 C-99.64483473 47.15741791 -97.89262736 44.79265973 -96.1875 41.5 C-92.4448096 34.8383001 -86.06016276 32.38612289 -79.13671875 29.89453125 C-76.83815522 29.09094851 -76.83815522 29.09094851 -75 27 C-73.34032195 26.26907529 -71.67818862 25.54297736 -70.00146484 24.85205078 C-66.52762671 23.37319068 -63.17993855 21.64177172 -59.8125 19.9375 C-59.11447266 19.58623047 -58.41644531 19.23496094 -57.69726562 18.87304688 C-56.68116211 18.36161133 -56.68116211 18.36161133 -55.64453125 17.83984375 C-55.00306152 17.51798096 -54.3615918 17.19611816 -53.70068359 16.86450195 C-52.38180818 16.19408308 -51.07653129 15.49687996 -49.77734375 14.7890625 C-47.7277881 13.87914988 -45.9757901 13.68264821 -43.75 13.4375 C-38.55942228 12.49723334 -34.65861065 10.2817315 -30.1875 7.625 C-20.55834866 1.95353067 -11.34297087 -2.45764369 0 0 Z " fill="#81B44D" transform="translate(416,105)"/>
<path d="M0 0 C1.86621094 0.30249023 1.86621094 0.30249023 4 1 C5.5899933 3.34727113 6.93501737 5.57133847 8.25 8.0625 C8.61351562 8.72572266 8.97703125 9.38894531 9.3515625 10.07226562 C10.24616748 11.70845105 11.12466067 13.35342724 12 15 C13.98 14.67 15.96 14.34 18 14 C26 29.14285714 26 29.14285714 26 35 C27.65 35 29.3 35 31 35 C31.47179687 35.90492188 31.47179687 35.90492188 31.953125 36.828125 C36.04155275 44.49691977 36.04155275 44.49691977 43 49.4375 C46 51 46 51 47.9375 53.6875 C49.8899848 56.3680572 49.8899848 56.3680572 53.5625 56.5625 C57.05407132 56.34201822 57.05407132 56.34201822 58.9375 54 C59.288125 53.34 59.63875 52.68 60 52 C62.32421875 52.22265625 62.32421875 52.22265625 65 53 C66.58203125 54.99609375 66.58203125 54.99609375 67.8125 57.4375 C68.44091797 58.64212891 68.44091797 58.64212891 69.08203125 59.87109375 C70 62 70 62 70 64 C71.051875 64.0928125 71.051875 64.0928125 72.125 64.1875 C75.3018771 65.08531309 76.9751527 66.56513743 79.3984375 68.74609375 C81.18295091 70.25995802 81.18295091 70.25995802 84.5 71.4375 C87.7336587 72.88109764 88.85184654 73.69285979 91.125 76.1875 C93.42056706 78.67443716 93.42056706 78.67443716 96.75 79.5 C99.18854556 79.16937144 99.18854556 79.16937144 101 77 C104.08203125 76.69921875 104.08203125 76.69921875 107.8125 76.6875 C109.03582031 76.67074219 110.25914062 76.65398437 111.51953125 76.63671875 C115.21630924 77.02257773 116.9805371 77.92677723 120 80 C125.27689396 81.34990311 130.59469962 81.14182876 136 81 C137.02617432 80.97599121 138.05234863 80.95198242 139.10961914 80.92724609 C148.03386783 80.51909534 155.57748488 78.55634961 163.9375 75.5 C174.22204166 71.82735549 183.05948103 69.96636876 193.9375 69.625 C200.56278843 69.37613306 206.8920797 68.83458312 213.375 67.4375 C220.93439897 65.85907893 228.29348639 65.23034819 236 66 C236.99 66.66 237.98 67.32 239 68 C241.56237314 68.2274466 244.05895775 68.36570613 246.625 68.4375 C256.86720054 68.91797852 264.2079013 71.74892337 273 77 C273.845625 77.495 274.69125 77.99 275.5625 78.5 C276.366875 78.995 277.17125 79.49 278 80 C278.61617188 80.36867188 279.23234375 80.73734375 279.8671875 81.1171875 C286.65043665 85.23833132 292.13404102 89.9071808 297.26953125 95.9609375 C298.36915389 97.25665537 299.48961384 98.53518649 300.63671875 99.7890625 C308.34320466 108.29143234 311.57577853 118.00383047 311.38671875 129.44921875 C309.97984093 142.36691506 305.82849506 158.54149157 295.5 167.0625 C292.53111932 168.95110094 289.41003745 169.89270054 286.0625 170.9375 C281.58744282 172.3463143 278.2305616 173.88524288 274.56640625 176.78125 C272.47102677 178.4115702 270.19633058 179.685003 267.875 180.96484375 C266.53012252 181.70732819 265.19805835 182.47320454 263.875 183.25390625 C254.98125452 188.42648392 247.64521377 190.19406304 237.36962891 190.58911133 C231.32454626 190.84836308 225.41734867 191.52209685 219.4375 192.4375 C218.22549927 192.62119141 218.22549927 192.62119141 216.98901367 192.80859375 C213.05673949 193.43133559 209.19118046 194.16998551 205.31640625 195.0859375 C198.21945135 196.70475856 190.88092438 196.44903687 183.6875 195.5 C179.40048078 194.9422094 175.12959058 194.88674585 170.8125 194.875 C170.13469482 194.87048828 169.45688965 194.86597656 168.75854492 194.86132812 C165.6383999 194.87051967 162.76865677 195.04435219 159.69921875 195.6328125 C157 196 157 196 154 194 C146.6670901 191.55422201 139.32243311 190.63518409 131.6472168 190.07617188 C112.13845235 188.64121542 112.13845235 188.64121542 103.54296875 181.9375 C100.55045181 179.65748709 97.45386862 178.46262791 94 177 C92.03125 175.5 92.03125 175.5 90.5 174 C88.05739385 171.75867765 86.79323943 170.92481434 83.5625 169.75 C78.98386582 167.50084637 76.92723219 164.46701251 73.9921875 160.375 C71.86580297 157.84001609 69.8539104 156.62016447 67 155 C63.67753895 150.82319182 62.2222835 147.09284793 61 142 C60.34 142 59.68 142 59 142 C61.59095443 152.06857226 61.59095443 152.06857226 68.3125 159.75 C70.91669761 161.93025846 72.18141359 163.68006848 74 166.5 C78.6388849 173.38186222 84.76939168 178.60142345 91 184 C91.50966309 184.46067871 92.01932617 184.92135742 92.54443359 185.39599609 C95.72278349 188.19716677 98.4548504 189.79110472 102.5 191 C107.72783185 192.75210713 112.40761688 194.81523377 115 200 C117.00996327 201.0574445 117.00996327 201.0574445 119.375 202 C122.19550635 203.17597659 124.43378609 204.28919072 127 206 C128.11375 206.12375 129.2275 206.2475 130.375 206.375 C134 207 134 207 136.25 208.9375 C139.87543441 211.65657581 143.14599817 211.92057892 147.57421875 212.5078125 C150 213 150 213 152 215 C154.05874538 215.14972694 156.12351396 215.22149847 158.1875 215.25 C165.34755867 215.66338029 165.34755867 215.66338029 168.3125 218.9375 C172.94643634 223.6963709 179.51256477 223.31317588 185.7734375 223.80126953 C187.98746651 223.99888133 190.17423465 224.2788874 192.375 224.58984375 C203.83990502 226.16854699 215.98468701 226.93920172 227.39599609 224.48461914 C230.20764878 223.96135544 232.81704108 223.87361766 235.67578125 223.859375 C236.75150391 223.84003906 237.82722656 223.82070313 238.93554688 223.80078125 C241.17495121 223.767106 243.41464088 223.7487117 245.65429688 223.74609375 C252.07171182 223.60050463 256.08056311 222.92621356 261.30371094 219.15356445 C266.64696358 215.5198758 274.90677681 216.96962943 281.09960938 217.12695312 C285.60777028 217.18763304 288.8735205 216.99735478 293 215 C295.20231143 214.2934473 297.4110729 213.60676762 299.625 212.9375 C302.7618764 211.98638759 305.89029448 211.03656851 309 210 C311.72331488 209.76811378 314.25039269 209.86906632 317 210 C319 212 319 212 319.1171875 213.8125 C318.42398706 220.07366526 316.62616951 225.29404989 314 231 C313.49210937 232.12019531 312.98421875 233.24039063 312.4609375 234.39453125 C308.81408029 242.0795751 304.65903626 248.613825 299 255 C298.27683594 255.84304688 297.55367188 256.68609375 296.80859375 257.5546875 C281.3616723 275.23133849 257.07530465 293.55848633 232.9375 295.484375 C226.02178184 296.69830425 219.75721951 301.16185366 214 305 C210.29455413 305.19850603 207.52994613 305.17664871 204 304 C198.71112794 303.33215938 198.71112794 303.33215938 194.25976562 305.50439453 C191.28144796 307.47556718 189.35782505 307.32962003 185.80859375 307.2578125 C184.61685547 307.24363281 183.42511719 307.22945312 182.19726562 307.21484375 C180.95654297 307.18519531 179.71582031 307.15554688 178.4375 307.125 C175.97793565 307.08169333 173.51829564 307.04243743 171.05859375 307.0078125 C169.96861084 306.98348145 168.87862793 306.95915039 167.75561523 306.93408203 C164.90893012 306.86732882 164.90893012 306.86732882 162 308 C150.95127392 308.68660988 140.3539191 307.49577959 129.47924805 305.65625 C127.04287661 305.24670135 124.60323082 304.86446777 122.16210938 304.484375 C112.60919734 302.94465708 104.71411048 300.84856659 96.375 295.8125 C93.15133088 293.79082742 93.15133088 293.79082742 89.70703125 293.734375 C84.91804676 292.78566153 82.77672212 290.71814117 79.3125 287.4375 C72.35822101 281.16806994 65.01933062 275.99864526 56.97265625 271.19140625 C49.15374109 266.35112544 43.87396442 260.76990527 38.27294922 253.61962891 C36.34827053 251.17077613 34.3577193 248.77694244 32.375 246.375 C31.653125 245.48554687 30.93125 244.59609375 30.1875 243.6796875 C28.70224926 241.86025534 27.20162929 240.05328338 25.6875 238.2578125 C8 217.16427365 8 217.16427365 8 206 C6.68 206 5.36 206 4 206 C3.80664062 205.154375 3.61328125 204.30875 3.4140625 203.4375 C2.87439633 201.08647905 2.33126393 198.73625179 1.78515625 196.38671875 C1.34670747 194.49549938 0.9127903 192.60316205 0.49609375 190.70703125 C-0.3383689 187.06095569 -1.50296668 183.78337476 -3 180.375 C-5.24883987 175.0078803 -5.93638669 169.65910509 -6.60546875 163.90625 C-6.83152622 161.06792123 -6.83152622 161.06792123 -8 159 C-8.2834907 156.54951228 -8.51899922 154.11376015 -8.71875 151.65625 C-8.78155151 150.93135376 -8.84435303 150.20645752 -8.90905762 149.45959473 C-9.17801642 146.35361366 -9.43741479 143.24685019 -9.69775391 140.14013672 C-9.88897895 137.87438095 -10.08499321 135.60907455 -10.28125 133.34375 C-10.3672345 132.28589294 -10.3672345 132.28589294 -10.45495605 131.20666504 C-10.74420975 127.48060534 -10.74420975 127.48060534 -12 124 C-12.09928298 121.55801328 -12.13962766 119.14529839 -12.1328125 116.703125 C-12.13422241 115.96618912 -12.13563232 115.22925323 -12.13708496 114.46998596 C-12.13922839 112.06327583 -12.13291002 109.6566969 -12.125 107.25 C-12.1234491 106.43244232 -12.12189819 105.61488464 -12.12030029 104.77255249 C-12.02238346 60.96875694 -12.02238346 60.96875694 -8 44.5625 C-7.2996043 41.57341507 -6.80083175 38.6562135 -6.5 35.6015625 C-6.41621094 34.7964624 -6.33242187 33.9913623 -6.24609375 33.16186523 C-6.08476025 31.53972733 -5.93084642 29.91683054 -5.78515625 28.29321289 C-5.71167969 27.54031982 -5.63820312 26.78742676 -5.5625 26.01171875 C-5.47162109 24.99791138 -5.47162109 24.99791138 -5.37890625 23.96362305 C-4.94456652 21.71272457 -4.02893678 20.04134147 -3 18 C-2.46662209 15.88550682 -2.46662209 15.88550682 -2.1484375 13.671875 C-2.01953125 12.87265625 -1.890625 12.0734375 -1.7578125 11.25 C-1.63148438 10.425 -1.50515625 9.6 -1.375 8.75 C-1.2409375 7.90953125 -1.106875 7.0690625 -0.96875 6.203125 C-0.63994409 4.13634499 -0.31918031 2.06828839 0 0 Z " fill="#81B44D" transform="translate(174,315)"/>
<path d="M0 0 C0 0.66 0 1.32 0 2 C-0.969375 2.46148437 -1.93875 2.92296875 -2.9375 3.3984375 C-33.3893465 18.11574236 -59.83929983 39.54579027 -84 63 C-84.79374023 63.76884521 -84.79374023 63.76884521 -85.60351562 64.55322266 C-91.0131749 69.81464702 -96.12435035 75.24358783 -101 81 C-101.71285156 81.80050781 -102.42570312 82.60101563 -103.16015625 83.42578125 C-116.67630431 98.96385715 -126.88127951 116.62019309 -136 135 C-136.78346129 136.56660279 -137.56730114 138.13301633 -138.3515625 139.69921875 C-139.39138725 141.77680237 -140.42888257 143.85512239 -141.45263672 145.94067383 C-143.15557678 149.39834198 -144.99764561 152.70838039 -147 156 C-149.43407782 161.18564404 -151.18721596 166.51010163 -152.9609375 171.953125 C-153.90061996 174.70858483 -154.9420027 177.37672785 -156.0625 180.0625 C-157.48791368 183.52342661 -158.56856056 186.93743839 -159.5 190.5625 C-160.39411911 194.03693025 -161.44142375 197.14567723 -163 200.375 C-165.20752166 205.05863911 -166.2067612 209.84179818 -167.2890625 214.88671875 C-167.87478126 217.45165199 -168.55793817 219.83932345 -169.4375 222.3125 C-174.30255026 236.21992117 -177.53803885 251.38038852 -179 266 C-179.33 266.66 -179.66 267.32 -180 268 C-182.29264452 282.45934098 -182.31932244 297.28174147 -182.26074219 311.88061523 C-182.24990101 315.09182134 -182.26078064 318.3024812 -182.2734375 321.51367188 C-182.28019618 331.9081263 -181.98379453 341.77650607 -180 352 C-179.63863622 354.66309392 -179.3547678 357.32783727 -179.0625 360 C-178.80333481 362.22206861 -178.53964746 364.4435706 -178.27539062 366.66503906 C-178.09031734 368.23422427 -177.90939136 369.80390366 -177.73242188 371.37402344 C-175.25496759 392.93480564 -169.7468126 413.73991452 -161.80664062 433.92041016 C-160.51262836 437.25648656 -159.31795533 440.62673972 -158.125 444 C-157.73570312 445.093125 -157.34640625 446.18625 -156.9453125 447.3125 C-156.28046624 449.20264144 -155.63361307 451.09916079 -155 453 C-154.34 453 -153.68 453 -153 453 C-155.31987406 441.64934667 -155.31987406 441.64934667 -159.125 430.75 C-161.15668093 426.08348286 -161.87236661 421.500444 -162.5078125 416.46875 C-162.90534488 413.66709321 -163.39715245 410.94498745 -163.96484375 408.17578125 C-164.94616082 403.3639002 -165.74511773 398.54878309 -166.4375 393.6875 C-166.56237793 392.81738281 -166.68725586 391.94726562 -166.81591797 391.05078125 C-168.12335082 381.62290094 -169.0718976 372.15816152 -169.99780273 362.6862793 C-170.11454346 361.50074463 -170.23128418 360.31520996 -170.3515625 359.09375 C-170.45291504 358.03865234 -170.55426758 356.98355469 -170.65869141 355.89648438 C-170.93924694 353.08801466 -170.93924694 353.08801466 -171.51026917 350.72254944 C-172.06850816 347.61914417 -172.1495338 344.69636353 -172.17700195 341.54272461 C-172.18983719 340.25204575 -172.20267242 338.96136688 -172.21589661 337.63157654 C-172.22408229 336.22183629 -172.23152245 334.81209156 -172.23828125 333.40234375 C-172.24235678 332.68063051 -172.2464323 331.95891727 -172.25063133 331.21533394 C-172.27149785 327.37052834 -172.2857784 323.52575813 -172.29516602 319.6809082 C-172.30389861 316.55960794 -172.3244606 313.43877158 -172.35668945 310.31762695 C-172.65179854 281.08822229 -171.3764447 251.16928937 -160.11083984 223.76318359 C-157.93829331 218.35903378 -156.01820526 212.86049661 -154.0625 207.375 C-153.62083496 206.14040039 -153.17916992 204.90580078 -152.72412109 203.63378906 C-150.38260046 197.04431578 -148.13315668 190.44852509 -146.125 183.75 C-144.52346906 178.45479736 -142.64514442 173.84943143 -140 169 C-138.06451206 164.57540769 -138.06451206 164.57540769 -136.27734375 160.08984375 C-133.88937605 154.14769157 -130.50768595 149.10730146 -126.90698242 143.85253906 C-124.11699117 139.75697173 -121.61664195 135.61094583 -119.25 131.25 C-108.15292185 111.4672812 -92.62380392 93.37113086 -77 77 C-76.16855469 76.12730469 -75.33710938 75.25460938 -74.48046875 74.35546875 C-65.94484819 65.60477744 -56.47387933 57.37451364 -46 51 C-45.34 51 -44.68 51 -44 51 C-44.5786483 54.18513082 -45.43095252 55.79766227 -47.74047852 58.04931641 C-48.31520401 58.61735992 -48.8899295 59.18540344 -49.48207092 59.7706604 C-50.10802658 60.37485809 -50.73398224 60.97905579 -51.37890625 61.6015625 C-52.02439926 62.23806732 -52.66989227 62.87457214 -53.33494568 63.53036499 C-55.40379125 65.56919072 -57.4821751 67.59789327 -59.5625 69.625 C-71.98564918 81.67657073 -71.98564918 81.67657073 -83 95 C-83.54696533 95.72960937 -84.09393066 96.45921875 -84.6574707 97.2109375 C-88.52134623 102.41336365 -92.26134619 107.70718985 -96 113 C-96.73331543 114.03326416 -96.73331543 114.03326416 -97.48144531 115.08740234 C-102.42184526 122.09175335 -106.49063056 128.66917471 -109.5390625 136.72265625 C-111.43597561 140.97803084 -113.83612046 144.8110049 -116.3125 148.75 C-120.74690389 155.81186816 -124.67805542 162.9630174 -128.296875 170.47265625 C-129.67907787 173.33533788 -131.1306899 176.13330414 -132.625 178.9375 C-135.16587205 183.99366486 -136.94376219 189.28810076 -138.7722168 194.63183594 C-140.17871578 198.73116161 -141.68596482 202.71926783 -143.4375 206.6875 C-149.37214972 220.70786988 -153.47437179 235.03645291 -155.39453125 250.12890625 C-156 254 -156 254 -156.96899414 256.27001953 C-162.50403488 270.92614683 -160.39490691 289.8521742 -160.375 305.1875 C-160.37578552 306.47081207 -160.37657104 307.75412415 -160.37738037 309.07632446 C-160.36403652 327.26981281 -159.73114609 344.91183409 -156.52490234 362.84326172 C-155.93817281 366.37182585 -155.52663719 369.90461477 -155.109375 373.45703125 C-154.15817959 380.74035034 -152.33756031 387.50990296 -150.125 394.5 C-149.4019516 396.85104212 -148.68058359 399.20260172 -147.9609375 401.5546875 C-147.61901367 402.66553711 -147.27708984 403.77638672 -146.92480469 404.92089844 C-145.75965002 408.80023599 -144.74169065 412.69790501 -143.75 416.625 C-142.32970978 422.07047953 -140.49032606 426.9648152 -138 432 C-134.91714029 438.37634958 -132.41820046 444.51047752 -130.67578125 451.3828125 C-128.68679422 459.08582584 -125.76942887 466.55119131 -123 474 C-122.71511719 474.80179688 -122.43023437 475.60359375 -122.13671875 476.4296875 C-119.98361873 482.21555099 -117.11262843 487.44604357 -113.99536133 492.75488281 C-111.93498428 496.28641028 -110.08453024 499.82123262 -108.4375 503.5625 C-107.62660342 505.37571792 -106.81403839 507.18819041 -106 509 C-105.53722656 510.03898437 -105.07445313 511.07796875 -104.59765625 512.1484375 C-100.97941731 519.59723259 -96.81227092 524.43095559 -90.63671875 529.74609375 C-86.78886326 533.10063443 -84.17640981 536.21180048 -82.125 540.96484375 C-80.5420592 543.82842762 -78.36521409 545.75167149 -76 548 C-66.51992297 557.34676344 -66.51992297 557.34676344 -63.5625 561.0625 C-51.07393791 575.37865654 -25.26009184 595.90465496 -7.0625 600.625 C2.22480368 603.39253357 13.77705264 609.67173486 19.33984375 618.0078125 C21.36942015 620.44330418 23.03214151 621.07388345 26 622.125 C29.05351703 623.22462965 31.27017311 624.18011541 34 626 C35.52969293 626.47768389 37.07354464 626.91109171 38.625 627.3125 C43.05555979 628.57286244 46.64349172 630.32306005 50.50390625 632.81640625 C52.82535782 633.91718845 54.66283971 634.40432223 57.16015625 634.90625 C60.51252995 635.59221991 63.52064058 636.52561493 66.6796875 637.83984375 C82.34467587 644.25440609 97.37996793 645.55411329 114.07226562 646.55513 C121.13303401 647.0102219 128.26424142 647.75474714 135 650 C137.99735083 650.12223502 140.97053791 650.18784025 143.96875 650.203125 C144.86844009 650.21009399 145.76813019 650.21706299 146.69508362 650.22424316 C149.63010254 650.2417526 152.56493082 650.24797678 155.5 650.25 C156.49707977 650.25100708 157.49415955 650.25201416 158.52145386 650.25305176 C180.52562003 650.23798663 201.65403283 648.41213394 223.12402344 643.41699219 C225.60944898 642.86453164 228.11070043 642.46028471 230.625 642.0625 C241.56484132 640.12293249 252.29787891 636.62933468 262.38671875 632.015625 C265.24990377 630.90287746 267.96258946 630.40913875 271 630 C271 629.34 271 628.68 271 628 C272.98 627.67 274.96 627.34 277 627 C277 626.34 277 625.68 277 625 C281.38338578 622.75960282 284.49949659 621.8950293 289.4375 621.8125 C294.14504458 621.52836837 296.12849211 620.47470867 299.375 617.0625 C299.96023438 616.35222656 300.54546875 615.64195312 301.1484375 614.91015625 C303.29146767 612.69930867 305.14345529 612.06668442 308 611 C309.65495823 609.69387106 309.65495823 609.69387106 311.125 608.1875 C316.02895014 603.79750096 321.98154295 601.5691118 328.05078125 599.19921875 C331.08551688 597.99474496 333.22016698 596.81087815 335.71484375 594.66796875 C339.10882385 591.77116912 342.78072224 589.81273526 346.75 587.8125 C351.7067416 585.39571773 351.7067416 585.39571773 356 582 C357.3083065 581.70958471 358.62175161 581.44208423 359.9375 581.1875 C366.73788395 579.05148196 370.37407431 573.03048779 374.62255859 567.67480469 C378.99080941 562.36353198 384.03415663 557.49823434 389.4375 553.25 C393.50053511 549.89109744 396.4813994 545.63108664 399.65844727 541.46606445 C404.30468913 535.44827933 409.51467129 530.25463731 415 525 C421.99163855 518.0714439 427.34474986 512.21608093 431 503 C431.65369989 501.66026171 432.31667557 500.32487356 433 499 C434.65 499 436.3 499 438 499 C438.11915771 498.26225342 438.23831543 497.52450684 438.36108398 496.7644043 C438.99125302 494.03784564 439.8258406 492.17579162 441.22265625 489.76953125 C441.67455322 488.97611328 442.1264502 488.18269531 442.59204102 487.36523438 C443.07729248 486.52283203 443.56254395 485.68042969 444.0625 484.8125 C448.11752202 477.61812722 451.74509049 470.39426069 455.00341797 462.80981445 C458.24858009 455.29927478 461.9094214 448.01555066 465.60546875 440.71875 C466.19086426 439.56161499 466.19086426 439.56161499 466.78808594 438.38110352 C467.62749807 436.73187174 468.47506826 435.0867764 469.32910156 433.44506836 C471.84053516 428.55982032 473.8803308 423.872509 475.375 418.5625 C475.57359619 417.85843018 475.77219238 417.15436035 475.97680664 416.42895508 C476.66589581 413.95643316 477.33414797 411.47887849 478 409 C478.26570801 408.02321289 478.53141602 407.04642578 478.80517578 406.04003906 C483.46931633 388.81654805 487.4427395 371.4841112 491 354 C491.16968292 353.27683594 491.33936584 352.55367188 491.51419067 351.80859375 C492.99241771 345.19669878 493.29181896 338.89378704 493.265625 332.1328125 C493.26753845 331.01800507 493.2694519 329.90319763 493.27142334 328.75460815 C493.27277779 326.4031349 493.26913334 324.05165398 493.26074219 321.70019531 C493.25013444 318.16974272 493.26061032 314.6398109 493.2734375 311.109375 C493.28470707 294.01494578 492.53362805 277.1653928 489.125 260.375 C487.57703934 252.33531101 486.26026831 244.28646538 485.0625 236.1875 C481.47989789 208.99626024 481.47989789 208.99626024 471 184 C469.9294067 182.16005828 468.86886801 180.31454963 467.80883789 178.46850586 C467.11198877 177.25524607 466.41203489 176.0437634 465.70874023 174.83422852 C463.27968851 170.62127642 461.53445131 166.60335392 460 162 C456.67305974 153.0463912 452.85721533 144.12858124 447.5 136.1875 C445.13375328 132.57030757 443.6502415 128.70958876 442.125 124.6875 C433.6361785 102.56081009 414.85392328 84.29782048 396.96484375 69.29296875 C389.612782 63.05175529 383.15555371 55.96618331 377.375 48.25 C375.15804214 45.29578683 372.97225509 43.07815396 370.0625 40.8125 C366.26567435 37.66083809 363.97935604 34.11147766 361.5625 29.875 C361.22033447 29.2766333 360.87816895 28.6782666 360.52563477 28.06176758 C358.71284873 24.74117173 357.503079 21.75537845 357 18 C360.55043572 19.18347857 361.11342471 20.20727699 363.25 23.1875 C370.9499732 33.34696359 381.32851487 39.20736118 393 44 C393 44.66 393 45.32 393 46 C394.19625 46.33 395.3925 46.66 396.625 47 C412.95220493 52.4595701 427.65622564 63.50592511 435.6875 78.75 C436.22761719 79.83796875 436.76773438 80.9259375 437.32421875 82.046875 C439.71108748 86.25310521 441.9675287 88.46390913 446.25 90.6875 C455.20535262 95.65208781 461.49509048 106.05008666 466 115 C466 116.32 466 117.64 466 119 C466.66 119 467.32 119 468 119 C472.33141344 127.37263293 476.48685935 135.66637565 479.69921875 144.546875 C480.81714867 147.51459287 482.02339696 150.40919899 483.26953125 153.32421875 C486.53223992 161.11595947 489.272116 169.07181281 492 177.0625 C492.26523468 177.83557495 492.53046936 178.6086499 492.80374146 179.40515137 C496.2735163 189.53960461 499.45546087 199.65262713 501.98828125 210.06640625 C502.96440561 214.03015104 504.26451512 217.84180268 505.625 221.6875 C507.61888436 227.46417432 508.88814409 233.08953931 509.90673828 239.09057617 C510.66953503 243.50052843 511.71133893 247.7158098 513 252 C518.57751082 270.79748875 520.38087281 290.22296132 520.25 309.75 C520.24756287 310.55360962 520.24512573 311.35721924 520.24261475 312.18518066 C520.19869402 324.72316622 519.79808487 337.23062141 519.125 349.75 C519.08588501 350.49229858 519.04677002 351.23459717 519.00646973 351.99938965 C518.5213189 360.9490014 517.77376801 369.83489732 516.67056274 378.730896 C514.85015304 390.68651152 514.85015304 390.68651152 517 402 C523.03380647 401.69830968 526.58059899 398.78805801 531 395 C531.49113281 394.41992188 531.98226562 393.83984375 532.48828125 393.2421875 C532.98714844 392.83226562 533.48601563 392.42234375 534 392 C536.1875 392.3125 536.1875 392.3125 538 393 C539.39187516 406.38851347 535.57284363 418.2151393 531.85888672 430.96289062 C530.38532715 436.17354469 529.20194161 441.44748256 528.01953125 446.73046875 C526.80872 450.61341516 525.1039962 453.51766331 523 457 C522.23412799 458.49195846 521.48245748 459.99135623 520.75 461.5 C518.24134994 466.58741767 515.57017537 471.57940813 512.85449219 476.55859375 C511.23022499 479.56613894 509.72995363 482.55930801 508.421875 485.71875 C507.24396316 488.43700809 506.1239276 490.46525506 504.375 492.8125 C498.4744191 501.39784521 493.57492058 511.32018616 490.0625 521.125 C488.29349259 525.81246204 485.7574084 529.94529678 483.125 534.1875 C482.71386963 534.85346191 482.30273926 535.51942383 481.87915039 536.20556641 C479.31987153 540.23523996 476.51087404 543.82812677 473.35693359 547.4074707 C471.59109607 549.4798993 470.16501675 551.67639355 468.75 554 C465.57789104 559.11023268 462.26667228 564.1058979 458.90332031 569.09082031 C456.68899405 572.39481503 454.53998701 575.72116501 452.48828125 579.12890625 C440.29979787 599.36900191 440.29979787 599.36900191 432.26171875 603.359375 C427.72247172 605.64258907 424.01059811 608.76263936 420.0625 611.9375 C412.97547981 617.6295771 406.42684565 622.28218201 397.8125 625.4375 C393.33296201 627.11861992 388.86919644 628.82089864 384.4375 630.625 C383.01244141 631.20121094 383.01244141 631.20121094 381.55859375 631.7890625 C379.01846461 632.87166479 379.01846461 632.87166479 377.18164062 634.45019531 C374.69603909 636.21592926 372.42900328 637.05681973 369.53515625 638.0078125 C368.48779297 638.35457031 367.44042969 638.70132813 366.36132812 639.05859375 C364.7284082 639.58646484 364.7284082 639.58646484 363.0625 640.125 C361.97775391 640.48464844 360.89300781 640.84429688 359.77539062 641.21484375 C355.20008688 642.71651074 350.74413343 644.13703852 346 645 C346 645.66 346 646.32 346 647 C345.44054687 647.1959375 344.88109375 647.391875 344.3046875 647.59375 C338.94757649 649.59190073 334.0433877 652.03370231 329.125 654.9375 C313.36990803 664.12372824 297.67107351 666.56095386 279.8605957 668.87548828 C274.13846125 669.64030088 268.67010296 670.70942396 263.1015625 672.25 C258.18186191 673.43965052 253.1900128 674.12462308 248.1875 674.875 C243.35609084 675.60656984 238.59140367 676.4690455 233.8125 677.5 C216.41989212 681.05715339 198.72582529 682.57686512 181 683 C180.26088379 683.02191406 179.52176758 683.04382813 178.76025391 683.06640625 C167.1487935 683.37875219 155.54642396 682.85258805 143.94918823 682.30728149 C142.2502455 682.22822671 140.5511231 682.15293223 138.85183716 682.08163452 C116.10538094 681.10538094 116.10538094 681.10538094 112 677 C110.00830262 676.82338581 108.01600003 676.65200378 106.02172852 676.50732422 C95.18405204 675.67002479 86.01286915 673.10115547 76 669 C75.20980469 668.67660645 74.41960937 668.35321289 73.60546875 668.02001953 C72.78691406 667.68470215 71.96835937 667.34938477 71.125 667.00390625 C69.43766125 666.31470925 67.75015961 665.62591092 66.0625 664.9375 C65.22372314 664.59251465 64.38494629 664.2475293 63.52075195 663.89208984 C58.00404732 661.66796387 52.51296203 659.9546313 46.75 658.5 C34.90424479 655.47062785 24.72244339 649.74594269 14.3828125 643.34765625 C11.85352168 641.91715571 9.32272411 640.82833819 6.625 639.75 C-8.75536477 633.54665185 -22.90380019 625.49062266 -36.76123047 616.44189453 C-38.90612656 615.06045982 -41.07124412 613.72312113 -43.25390625 612.40234375 C-53.63239971 606.11717753 -63.4551278 599.28460074 -72.29296875 590.9296875 C-72.8230957 590.42880615 -73.35322266 589.9279248 -73.89941406 589.41186523 C-75.34260067 588.02846778 -76.7639403 586.62238067 -78.18359375 585.21484375 C-81.38919493 582.69393408 -84.09324594 582.03025253 -88 581 C-92.52124858 577.49748769 -95.17558952 572.17268534 -97.62890625 567.11328125 C-99.35812827 564.44801313 -101.51590814 562.97639425 -104 561 C-105.82557852 558.90335073 -107.55499192 556.82072965 -109.25 554.625 C-109.96289185 553.70895996 -109.96289185 553.70895996 -110.69018555 552.77441406 C-115.54665568 546.43967627 -119.81976644 539.79287953 -124 533 C-124.86625 531.63875 -124.86625 531.63875 -125.75 530.25 C-128.23107341 526.28028254 -130.29771672 522.45133172 -131.9375 518.0625 C-135.06986883 509.83361302 -140.23604613 502.9405308 -145.5625 496 C-149.0674499 491.40198098 -151.9475452 486.77590971 -154.59765625 481.64453125 C-155.98779464 479.02301679 -157.52686914 476.56132307 -159.125 474.0625 C-161.8699577 469.55649152 -163.45328736 465.03675342 -165.00390625 460.01171875 C-166.30542191 456.07654787 -168.01683105 452.4033963 -169.77734375 448.65625 C-171.33289507 445.27677748 -172.68686857 441.83428186 -174.04296875 438.37109375 C-174.92350121 436.18952965 -175.88083533 434.06902178 -176.875 431.9375 C-179.17790487 426.84209632 -180.95968042 421.57333774 -182.78417969 416.29296875 C-184.11702103 412.44816912 -185.51502306 408.67721021 -187.125 404.9375 C-189.29442342 399.64840984 -190.56266439 394.1614144 -191.875 388.61328125 C-192.8056044 384.69066485 -193.86265233 380.80769794 -194.921875 376.91796875 C-210.14956087 320.29912175 -210.14956087 320.29912175 -202 304 C-201.81326391 302.40945438 -201.67854404 300.81265215 -201.5703125 299.21484375 C-201.49876953 298.22081543 -201.42722656 297.22678711 -201.35351562 296.20263672 C-201.27810547 295.1251416 -201.20269531 294.04764648 -201.125 292.9375 C-200.4324272 283.72601328 -199.58300665 274.54906584 -198.5 265.375 C-198.38156738 264.33980225 -198.26313477 263.30460449 -198.14111328 262.23803711 C-197.50134573 256.9675504 -196.58360585 252.0845276 -195 247 C-194.38172678 244.4189118 -193.77728098 241.8374758 -193.1875 239.25 C-191.520596 232.0464508 -189.69189244 224.89477267 -187.78808594 217.75048828 C-186.62512321 213.38533376 -185.50187469 209.01554561 -184.4375 204.625 C-179.57137986 185.05177932 -171.95014514 166.47806461 -164 148 C-163.34 148 -162.68 148 -162 148 C-161.65001953 146.34291016 -161.65001953 146.34291016 -161.29296875 144.65234375 C-159.95278734 139.31393488 -157.68489896 134.51064641 -155.3125 129.5625 C-154.90322266 128.67240234 -154.49394531 127.78230469 -154.07226562 126.86523438 C-150.34956298 119.03669379 -145.43224623 112.69064205 -139.6875 106.25 C-136.75863715 102.9655357 -134.1290271 99.52854547 -131.5 96 C-127.42132182 90.59011444 -123.00318181 85.57093757 -118.375 80.625 C-117.76591797 79.97144531 -117.15683594 79.31789063 -116.52929688 78.64453125 C-112.83356295 74.74634574 -108.97610389 71.14705597 -104.90185547 67.64794922 C-102.67200727 65.71579578 -100.52967375 63.70499019 -98.38696289 61.67749023 C-91.81530574 55.47298848 -84.91938201 49.84680335 -77.74853516 44.35449219 C-76.02644593 43.02048618 -74.32888171 41.66076623 -72.63671875 40.2890625 C-56.57130629 27.31154145 -39.00939018 15.92385284 -20.5625 6.625 C-19.60512939 6.14208496 -19.60512939 6.14208496 -18.62841797 5.64941406 C-6.00896565 -0.56334053 -6.00896565 -0.56334053 0 0 Z " fill="#83B54F" transform="translate(224,51)"/>
<path d="M0 0 C1.76645874 0.00253784 1.76645874 0.00253784 3.56860352 0.00512695 C14.8009672 0.23218914 24.7122869 2.65536182 35.1875 6.5625 C36.99154297 7.22378906 36.99154297 7.22378906 38.83203125 7.8984375 C41.67786567 9.0224526 44.43266701 10.23288029 47.1875 11.5625 C47.92226563 11.91570313 48.65703125 12.26890625 49.4140625 12.6328125 C54.42064375 15.23623475 59.05517416 18.41580227 63.6875 21.625 C64.62408447 22.2605481 64.62408447 22.2605481 65.57958984 22.90893555 C68.01156714 24.63380181 69.91121266 25.99969245 71.2421875 28.7109375 C71.1875 30.5625 71.1875 30.5625 68.8125 33.125 C67.94625 33.929375 67.08 34.73375 66.1875 35.5625 C65.8575 36.5525 65.5275 37.5425 65.1875 38.5625 C63.125 39.4375 63.125 39.4375 60.1875 39.5625 C58.62909823 38.24651628 57.08335865 36.91316484 55.59765625 35.515625 C39.82530079 22.73413759 20.31172746 16.4563194 0.3125 16.25 C-1.08162109 16.20649414 -1.08162109 16.20649414 -2.50390625 16.16210938 C-10.40587026 16.09047372 -17.04141152 17.73558867 -23.43359375 22.52734375 C-34.6577767 34.71704782 -32.91907159 43.69393181 -33.8125 61.5625 C24.5975 61.5625 83.0075 61.5625 143.1875 61.5625 C143.1875 66.1825 143.1875 70.8025 143.1875 75.5625 C134.9375 75.5625 126.6875 75.5625 118.1875 75.5625 C118.1875 115.1625 118.1875 154.7625 118.1875 195.5625 C112.9075 195.5625 107.6275 195.5625 102.1875 195.5625 C102.20490234 192.20952759 102.20490234 192.20952759 102.22265625 188.78881836 C102.25522419 181.38863806 102.24376041 173.98899229 102.21084595 166.58882809 C102.19224027 162.10354936 102.18829057 157.61927126 102.21826172 153.1340332 C102.24666146 148.8022015 102.23600496 144.47203784 102.19869995 140.14029121 C102.19127521 138.4909658 102.19772958 136.84151549 102.21853638 135.19230461 C102.58923298 126.16038372 102.58923298 126.16038372 99.42553711 118.00100708 C97.42196815 116.2132732 95.53641584 114.85047245 93.1875 113.5625 C92.383125 113.088125 91.57875 112.61375 90.75 112.125 C85.47765179 110.96765527 80.87052565 110.90799002 75.8125 112.875 C71.09553508 115.90733459 68.60403347 119.04593798 67.1875 124.5625 C66.64716304 129.55933032 66.37490222 134.54141293 66.1875 139.5625 C63.70826199 139.58935095 61.2293116 139.60926547 58.75 139.625 C58.04294922 139.63337891 57.33589844 139.64175781 56.60742188 139.65039062 C54.80056441 139.65903588 52.99362397 139.61470011 51.1875 139.5625 C48.96165151 137.33665151 49.77757322 130.43841083 49.6640625 127.39453125 C49.09405039 122.8110732 48.12035006 119.13374782 44.43359375 116.13671875 C43.83675781 115.84410156 43.23992187 115.55148437 42.625 115.25 C40.81009599 114.35904712 38.99585253 113.46667627 37.1875 112.5625 C31.09978026 111.91777204 26.54488741 112.62118926 21.1875 115.5625 C17.83449397 118.37177532 15.53793266 121.21166925 14.88110352 125.61791992 C14.15116223 139.50801482 14.15116223 139.50801482 20.1875 151.5625 C20.93 152.531875 21.6725 153.50125 22.4375 154.5 C25.6948473 156.94301047 28.3327364 157.54681066 32.296875 158.203125 C34.1875 158.5625 34.1875 158.5625 35.1875 159.5625 C41.25593919 159.78317052 47.16150589 159.25400752 53.1875 158.5625 C54.1435073 163.34253652 54.51101874 167.7097189 54.1875 172.5625 C47.24914043 177.18807305 34.214139 175.4819324 26.2265625 173.91015625 C16.0298235 171.08849332 8.92599924 165.76260403 3.40234375 156.765625 C-2.90472158 145.3277316 -4.34641394 130.36785095 -0.71875 117.76171875 C3.83657488 108.2270361 10.25954006 102.12954769 19.8046875 97.66796875 C28.43853574 94.84651488 37.75623914 95.4291824 45.96875 99.2890625 C51.28643595 102.34111465 55.63627693 105.52345564 59.1875 110.5625 C59.93 109.015625 59.93 109.015625 60.6875 107.4375 C63.79869446 101.998426 68.53082415 98.8060504 74.125 96.1875 C81.62607397 94.65666858 88.20673265 95.36241903 95.1875 98.5625 C98.25 100.625 98.25 100.625 100.1875 102.5625 C100.1875 103.2225 100.1875 103.8825 100.1875 104.5625 C101.1775 104.5625 102.1675 104.5625 103.1875 104.5625 C103.1875 94.9925 103.1875 85.4225 103.1875 75.5625 C57.9775 75.5625 12.7675 75.5625 -33.8125 75.5625 C-33.8125 115.1625 -33.8125 154.7625 -33.8125 195.5625 C-39.4225 195.5625 -45.0325 195.5625 -50.8125 195.5625 C-50.8125 156.2925 -50.8125 117.0225 -50.8125 76.5625 C-59.3925 76.5625 -67.9725 76.5625 -76.8125 76.5625 C-76.8125 115.8325 -76.8125 155.1025 -76.8125 195.5625 C-82.4225 195.5625 -88.0325 195.5625 -93.8125 195.5625 C-93.81614563 194.1829866 -93.81979126 192.80347321 -93.82354736 191.38215637 C-93.86046915 178.38921552 -93.91821125 165.3965123 -93.99640274 152.40375233 C-94.03593223 145.72381644 -94.06809396 139.04405216 -94.08349609 132.36401367 C-94.09862642 125.91886289 -94.13300813 119.47407738 -94.18080902 113.02908897 C-94.19566014 110.56872416 -94.20354314 108.10830721 -94.20438385 105.64789772 C-94.20674393 102.20472778 -94.23374819 98.76257516 -94.26660156 95.31958008 C-94.2615712 94.29962448 -94.25654083 93.27966888 -94.25135803 92.22880554 C-94.31563492 87.88212481 -94.37156635 85.29013526 -96.65911865 81.5151825 C-100.80790644 77.75306888 -103.71844512 77.2393487 -109.10546875 77.1484375 C-109.81149734 77.12907135 -110.51752594 77.1097052 -111.24494934 77.0897522 C-113.49651061 77.03004776 -115.74812328 76.9836086 -118 76.9375 C-119.52801689 76.89931171 -121.05601245 76.86025948 -122.58398438 76.8203125 C-126.32664935 76.72435404 -130.0694151 76.64028989 -133.8125 76.5625 C-133.82079421 90.31430264 -133.79706373 104.06563891 -133.7322216 117.8173027 C-133.70312505 124.20251987 -133.68514372 130.58736868 -133.69238281 136.97265625 C-133.69896055 143.13263018 -133.67657861 149.29187521 -133.63394547 155.4516983 C-133.62278664 157.80404313 -133.62213891 160.15646164 -133.63207626 162.50881195 C-133.64419746 165.79933089 -133.61925928 169.0876074 -133.58544922 172.37792969 C-133.60378059 173.84312546 -133.60378059 173.84312546 -133.6224823 175.33792114 C-133.68099453 180.10899999 -133.68099453 180.10899999 -131.42535782 184.07712555 C-129.61841201 185.36222847 -129.61841201 185.36222847 -126.8125 186.5625 C-127.3974515 190.04142209 -128.60388909 191.81113064 -131.0625 194.3125 C-131.93648438 195.23289062 -131.93648438 195.23289062 -132.828125 196.171875 C-135.44240935 198.00393254 -136.66922203 198.0715896 -139.8125 197.5625 C-142.51953125 196.12109375 -142.51953125 196.12109375 -145.625 194 C-146.87102567 193.1672171 -148.11853922 192.33665796 -149.3671875 191.5078125 C-150.06553711 191.04149414 -150.76388672 190.57517578 -151.48339844 190.09472656 C-156.02198104 187.10896719 -160.64043095 184.24942353 -165.25 181.375 C-166.27464355 180.73457764 -167.29928711 180.09415527 -168.35498047 179.43432617 C-174.49075672 175.60720599 -180.64965527 171.82128983 -186.83789062 168.07958984 C-188.76599051 166.90960435 -190.68927044 165.73163538 -192.60742188 164.54541016 C-197.01723935 161.82120156 -201.42064565 159.21093651 -206.03125 156.83984375 C-216.65788766 151.16021784 -216.65788766 151.16021784 -218.69384766 146.57958984 C-219.98667542 141.44654184 -219.76915103 136.49571761 -217.8125 131.5625 C-214.73758631 127.50587075 -211.12759036 125.18675767 -206.8125 122.5625 C-204.84386358 121.13914259 -202.88506203 119.70205986 -200.9375 118.25 C-200.07382812 117.63511719 -199.21015625 117.02023437 -198.3203125 116.38671875 C-195.75289637 114.51914347 -193.27702827 112.56327295 -190.8125 110.5625 C-191.04419476 104.97023102 -194.61332049 102.34776388 -198.4375 98.75 C-199.71928291 97.50970608 -200.99924944 96.26753211 -202.27734375 95.0234375 C-202.89077637 94.42885742 -203.50420898 93.83427734 -204.13623047 93.22167969 C-206.73795568 90.6464795 -209.12694352 87.91391418 -211.48046875 85.11328125 C-212.7965302 83.50530349 -212.7965302 83.50530349 -214.48828125 82.10546875 C-215.8125 80.5625 -215.8125 80.5625 -215.8125 76.5625 C-222.7425 76.5625 -229.6725 76.5625 -236.8125 76.5625 C-236.8125 115.8325 -236.8125 155.1025 -236.8125 195.5625 C-242.0925 195.5625 -247.3725 195.5625 -252.8125 195.5625 C-252.82058685 194.22057083 -252.82867371 192.87864166 -252.83700562 191.49604797 C-252.91445361 178.85635128 -253.00218967 166.21676241 -253.10002708 153.57720661 C-253.14999613 147.07891797 -253.19632631 140.58064563 -253.234375 134.08227539 C-253.27121984 127.81228039 -253.31757796 121.54242161 -253.37056351 115.27254295 C-253.38911165 112.87915623 -253.40421804 110.48574031 -253.41584396 108.09230995 C-253.43269892 104.74279423 -253.46173287 101.39359075 -253.49365234 98.04418945 C-253.49581253 97.05228607 -253.49797272 96.06038269 -253.50019836 95.03842163 C-253.53877731 88.55894965 -253.53877731 88.55894965 -255.8125 82.5625 C-265.96465477 72.69234953 -280.37911155 76.06003291 -293.8125 75.5625 C-293.8125 115.1625 -293.8125 154.7625 -293.8125 195.5625 C-299.0925 195.5625 -304.3725 195.5625 -309.8125 195.5625 C-309.81392502 194.34442657 -309.81535004 193.12635315 -309.81681824 191.87136841 C-309.83352111 180.36627609 -309.87639549 168.86153597 -309.94459057 157.35663033 C-309.9788138 151.44245503 -310.00396336 145.5285368 -310.00805664 139.61425781 C-310.01234948 133.90168209 -310.04089483 128.18968578 -310.08593178 122.47729111 C-310.09887514 120.30296077 -310.10322574 118.12856098 -310.09865379 115.95419693 C-310.09372544 112.89738414 -310.11994025 109.84225034 -310.15307617 106.78564453 C-310.14445053 105.89587418 -310.13582489 105.00610382 -310.12693787 104.08937073 C-310.27161545 96.0759198 -313.01569422 89.55443176 -318.5 83.6875 C-326.4765536 78.57046562 -333.73793248 76.22632536 -343.12890625 78 C-349.01724618 79.59413602 -353.3900775 82.45324248 -356.8125 87.5625 C-357.64740391 89.97012989 -358.15627082 92.22325328 -358.5234375 94.7421875 C-358.8125 96.5625 -358.8125 96.5625 -359.8125 97.5625 C-360.73269328 104.32064084 -359.27062901 109.75374735 -355.8125 115.5625 C-352.50192698 119.67834754 -348.97016649 122.35142232 -343.8125 123.5625 C-338.81483605 124.09372744 -333.83354091 124.3750995 -328.8125 124.5625 C-328.78564588 126.87493792 -328.76617159 129.1874627 -328.75 131.5 C-328.73839844 132.78777344 -328.72679687 134.07554687 -328.71484375 135.40234375 C-328.8125 138.5625 -328.8125 138.5625 -329.8125 139.5625 C-341.83559393 140.43204226 -352.10936406 139.00808306 -361.8125 131.5625 C-362.72 130.634375 -363.6275 129.70625 -364.5625 128.75 C-366.76748035 126.09778107 -366.76748035 126.09778107 -370.8125 126.5625 C-372.98045927 128.17555896 -372.98045927 128.17555896 -375.0625 130.3125 C-381.27456181 136.09473217 -387.64056295 139.68246087 -396.25390625 139.6953125 C-397.50010742 139.69724609 -397.50010742 139.69724609 -398.77148438 139.69921875 C-399.63064453 139.69535156 -400.48980469 139.69148437 -401.375 139.6875 C-402.23802734 139.69136719 -403.10105469 139.69523438 -403.99023438 139.69921875 C-404.81974609 139.69792969 -405.64925781 139.69664062 -406.50390625 139.6953125 C-407.63614624 139.69362061 -407.63614624 139.69362061 -408.79125977 139.69189453 C-410.8125 139.5625 -410.8125 139.5625 -413.8125 138.5625 C-413.8125 133.6125 -413.8125 128.6625 -413.8125 123.5625 C-412.48476563 123.62050781 -411.15703125 123.67851563 -409.7890625 123.73828125 C-395.8242458 124.61030541 -395.8242458 124.61030541 -383.8125 118.5625 C-378.20676247 111.88574758 -376.9993081 105.30453869 -377.4296875 96.734375 C-378.24896386 89.94608513 -380.59769486 86.08553863 -385.98828125 81.84765625 C-392.86597769 77.0023412 -399.60944482 76.50215061 -407.83984375 76.24609375 C-409.12568359 76.20419922 -410.41152344 76.16230469 -411.73632812 76.11914062 C-413.07421625 76.079343 -414.41210691 76.03963049 -415.75 76 C-417.11524562 75.95673346 -418.48048018 75.91311679 -419.84570312 75.86914062 C-423.16787652 75.76348847 -426.49011946 75.66138605 -429.8125 75.5625 C-430.12026367 76.34842529 -430.42802734 77.13435059 -430.74511719 77.9440918 C-431.69423899 80.27239264 -432.75635878 82.2372822 -434.0625 84.375 C-445.42971136 104.72163571 -450.21803881 131.72483094 -444.125 154.4375 C-443.40941665 156.49918069 -442.64260498 158.54420554 -441.8125 160.5625 C-441.43867188 161.4803125 -441.06484375 162.398125 -440.6796875 163.34375 C-436.2810879 173.01484316 -429.84199635 179.15708722 -420.8125 184.5625 C-421.37292289 188.24067783 -422.3267096 190.77630426 -424.375 193.875 C-425.05755859 194.92107422 -425.05755859 194.92107422 -425.75390625 195.98828125 C-426.10324219 196.50777344 -426.45257813 197.02726563 -426.8125 197.5625 C-435.93193345 196.58637296 -442.54631262 190.47509136 -448.1875 183.5625 C-449.41903234 181.91290147 -450.62925669 180.2470719 -451.8125 178.5625 C-452.55306641 177.52416016 -452.55306641 177.52416016 -453.30859375 176.46484375 C-456.46108911 171.75948718 -458.25121307 166.9828169 -459.8125 161.5625 C-460.18375 160.386875 -460.555 159.21125 -460.9375 158 C-468.48203746 128.3607457 -460.62328952 96.66879411 -446.11108398 70.63208008 C-445.68255127 69.94911865 -445.25401855 69.26615723 -444.8125 68.5625 C-444.50902649 67.97992432 -444.20555298 67.39734863 -443.8928833 66.79711914 C-442.23262764 63.96613002 -441.00663799 61.93369014 -437.78068542 60.93092346 C-435.26197981 60.70103004 -432.83279127 60.69670384 -430.3046875 60.7734375 C-428.92278732 60.77762192 -428.92278732 60.77762192 -427.51296997 60.78189087 C-425.56445842 60.7946362 -423.61599406 60.82427363 -421.66796875 60.86962891 C-418.71782881 60.93680935 -415.77114518 60.95160148 -412.8203125 60.95703125 C-400.76061263 61.05107722 -389.98350767 61.57527423 -379.375 67.9375 C-378.40691406 68.50210938 -377.43882812 69.06671875 -376.44140625 69.6484375 C-373.66635624 71.66890482 -371.91448833 73.87380284 -369.8125 76.5625 C-369.1525 76.5625 -368.4925 76.5625 -367.8125 76.5625 C-367.22210938 75.81355469 -366.63171875 75.06460938 -366.0234375 74.29296875 C-363.69819805 71.42133911 -361.55967032 69.82089046 -358.4375 67.875 C-357.52226562 67.29363281 -356.60703125 66.71226562 -355.6640625 66.11328125 C-346.50649228 61.13306841 -334.70856518 60.99713551 -324.62890625 63.28515625 C-319.19267484 65.37992873 -314.83112817 68.42585739 -309.8125 71.5625 C-309.8125 61.6625 -309.8125 51.7625 -309.8125 41.5625 C-304.5325 41.5625 -299.2525 41.5625 -293.8125 41.5625 C-293.8125 48.1625 -293.8125 54.7625 -293.8125 61.5625 C-291.64429688 61.53929687 -289.47609375 61.51609375 -287.2421875 61.4921875 C-285.12728459 61.47656129 -283.01238827 61.4644335 -280.89746094 61.45263672 C-279.43486624 61.44261895 -277.97229137 61.42900088 -276.50976562 61.41162109 C-274.39968961 61.38718561 -272.28987988 61.37597463 -270.1796875 61.3671875 C-268.91237793 61.35671387 -267.64506836 61.34624023 -266.33935547 61.33544922 C-260.05699158 61.73989325 -255.88366448 63.94023966 -250.8125 67.5625 C-251.1425 66.428125 -251.4725 65.29375 -251.8125 64.125 C-253.50310372 56.71967948 -252.93128985 49.10565571 -252.8125 41.5625 C-247.5325 41.5625 -242.2525 41.5625 -236.8125 41.5625 C-236.8125 48.1625 -236.8125 54.7625 -236.8125 61.5625 C-235.14341583 61.55139694 -233.47433167 61.54029388 -231.75466919 61.52885437 C-216.01155486 61.42741814 -200.26854231 61.35220452 -184.52517891 61.30343914 C-176.43169112 61.27770093 -168.33844794 61.24263489 -160.24511719 61.18530273 C-153.18768768 61.13533277 -146.13043541 61.10317714 -139.0728339 61.09205753 C-135.33874934 61.08556157 -131.60517162 61.07038746 -127.87125015 61.03384972 C-123.69405262 60.99330915 -119.51772587 60.99255923 -115.34033203 60.99487305 C-114.11393509 60.97689667 -112.88753815 60.95892029 -111.62397766 60.94039917 C-103.85018527 60.98687543 -98.41808534 62.41915637 -91.8125 66.5625 C-91.97515854 65.95162537 -92.13781708 65.34075073 -92.30540466 64.71136475 C-92.88264587 62.2652502 -92.925475 60.09039939 -92.91015625 57.578125 C-92.90693359 56.64355469 -92.90371094 55.70898438 -92.90039062 54.74609375 C-92.89201172 53.77800781 -92.88363281 52.80992187 -92.875 51.8125 C-92.87048828 50.82894531 -92.86597656 49.84539063 -92.86132812 48.83203125 C-92.849565 46.40882806 -92.83163018 43.98565623 -92.8125 41.5625 C-87.8625 41.5625 -82.9125 41.5625 -77.8125 41.5625 C-77.8125 48.1625 -77.8125 54.7625 -77.8125 61.5625 C-68.5725 61.5625 -59.3325 61.5625 -49.8125 61.5625 C-49.96982382 52.75253765 -49.96982382 52.75253765 -50.17285156 43.94360352 C-50.2658908 33.56447652 -47.92205925 26.89371716 -41.8125 18.5625 C-41.11125 17.593125 -40.41 16.62375 -39.6875 15.625 C-36.15267293 11.47350528 -31.57181415 8.1781881 -26.8125 5.5625 C-25.4925 5.5625 -24.1725 5.5625 -22.8125 5.5625 C-22.8125 4.9025 -22.8125 4.2425 -22.8125 3.5625 C-15.16125538 0.75901515 -8.12032302 -0.01691612 0 0 Z " fill="#86B753" transform="translate(624.8125,744.4375)"/>
<path d="M0 0 C1.38002929 0.00197555 2.76006593 0.00086416 4.14009094 -0.00309753 C7.87999194 -0.00510414 11.61831793 0.03601569 15.35785317 0.08492017 C19.26820633 0.12871268 23.17859657 0.13279383 27.0891571 0.14109802 C34.49127562 0.16284542 41.89266949 0.22027487 49.29446906 0.29054445 C57.72237529 0.36881668 66.15031634 0.40728149 74.57849562 0.4424125 C91.91303143 0.51555906 109.24681665 0.64007583 126.58081055 0.79467773 C126.58081055 5.41467773 126.58081055 10.03467773 126.58081055 14.79467773 C98.86081055 14.79467773 71.14081055 14.79467773 42.58081055 14.79467773 C42.58081055 34.26467773 42.58081055 53.73467773 42.58081055 73.79467773 C43.57081055 73.79467773 44.56081055 73.79467773 45.58081055 73.79467773 C45.80768555 73.25842773 46.03456055 72.72217773 46.26831055 72.16967773 C48.03651144 68.97007612 50.11751257 66.5043055 52.58081055 63.79467773 C53.24081055 63.79467773 53.90081055 63.79467773 54.58081055 63.79467773 C54.84249023 63.19913086 55.10416992 62.60358398 55.3737793 61.98999023 C61.22669994 51.34487243 79.5918816 39.91799295 90.58081055 34.79467773 C94.81541956 34.13793708 97.74085379 35.39219845 101.58081055 37.23217773 C102.57081055 38.00561523 102.57081055 38.00561523 103.58081055 38.79467773 C103.58081055 39.45467773 103.58081055 40.11467773 103.58081055 40.79467773 C104.90081055 40.79467773 106.22081055 40.79467773 107.58081055 40.79467773 C107.85959436 45.06936292 107.53252277 48.30194548 106.171875 52.37280273 C104.50361153 57.7656976 103.61222594 63.07351512 102.9362793 68.66967773 C102.81044968 69.69778564 102.68462006 70.72589355 102.55497742 71.78515625 C101.12898415 84.42694471 101.01495135 97.08627666 100.89331055 109.79467773 C100.86001981 112.238705 100.82552009 114.6827161 100.78979492 117.12670898 C100.70626967 123.0159399 100.63884658 128.90514278 100.58081055 134.79467773 C95.30081055 134.79467773 90.02081055 134.79467773 84.58081055 134.79467773 C84.48043993 127.09818134 84.40864627 119.40208236 84.36108398 111.70507812 C84.34121496 109.09758858 84.31411038 106.49014207 84.27905273 103.8828125 C84.05895866 87.0682722 84.93014932 71.24029002 88.58081055 54.79467773 C87.15135435 55.73003636 85.72423836 56.66897194 84.2980957 57.609375 C83.10562729 58.39309227 83.10562729 58.39309227 81.8890686 59.19264221 C78.64462209 61.44443488 75.80402501 64.00685352 72.95581055 66.73217773 C72.11808105 67.52192993 72.11808105 67.52192993 71.26342773 68.32763672 C69.69617695 69.81012802 68.13798866 71.30162501 66.58081055 72.79467773 C65.89760742 73.43663086 65.2144043 74.07858398 64.51049805 74.73999023 C58.04088917 80.96886948 52.42183202 88.05786854 47.39331055 95.48217773 C45.46949861 98.029787 44.97654056 98.6777575 41.83081055 99.60717773 C37.07642559 98.4185815 31.12303494 96.33690213 27.58081055 92.79467773 C27.48584347 90.39119488 27.45522193 88.01656792 27.46728516 85.61279297 C27.46713913 84.86162201 27.4669931 84.11045105 27.46684265 83.33651733 C27.46754191 80.84207314 27.4753349 78.3477027 27.4831543 75.85327148 C27.48501843 74.12834209 27.48644235 72.40341217 27.48744202 70.67848206 C27.49126757 66.1295527 27.50109817 61.58065507 27.512146 57.03173828 C27.52235931 52.39347767 27.52693946 47.75521196 27.53198242 43.11694336 C27.54272041 34.00950527 27.56031751 24.9020991 27.58081055 15.79467773 C17.68081055 15.79467773 7.78081055 15.79467773 -2.41918945 15.79467773 C-2.41918945 16.45467773 -2.41918945 17.11467773 -2.41918945 17.79467773 C-3.40918945 17.79467773 -4.39918945 17.79467773 -5.41918945 17.79467773 C-5.66797852 18.43276367 -5.91676758 19.07084961 -6.1730957 19.72827148 C-7.16804523 22.17665826 -8.19910259 24.59699068 -9.2590332 27.01733398 C-18.61026238 48.49077341 -25.01144876 75.86181663 -16.41918945 98.79467773 C-10.82943948 110.3976436 -4.71675888 117.69934877 6.58081055 123.79467773 C5.9469182 127.2931216 4.52903361 129.63554649 2.51831055 132.54467773 C1.6965332 133.74350586 1.6965332 133.74350586 0.8581543 134.96655273 C0.43663086 135.56983398 0.01510742 136.17311523 -0.41918945 136.79467773 C-11.17763166 135.50428654 -17.8276285 127.82470469 -24.28637695 119.73608398 C-26.86016106 116.18652459 -28.69453413 112.81887349 -30.41918945 108.79467773 C-30.73629883 108.21459961 -31.0534082 107.63452148 -31.38012695 107.03686523 C-41.92288737 84.28669803 -37.95427238 54.46967553 -29.99731445 31.63452148 C-26.93997336 23.32862399 -22.98655311 15.37077987 -18.41918945 7.79467773 C-18.15565076 7.20190505 -17.89211206 6.60913237 -17.62058735 5.99839687 C-13.77554818 -1.25852627 -7.40325866 -0.14430594 0 0 Z " fill="#85B653" transform="translate(42.419189453125,805.205322265625)"/>
<path d="M0 0 C15.84 0 31.68 0 48 0 C48.33 32.01 48.66 64.02 49 97 C45.54247909 95.61699163 42.81227534 94.41088467 39.69921875 92.53125 C38.49265625 91.80566895 38.49265625 91.80566895 37.26171875 91.06542969 C36.41222656 90.54883789 35.56273437 90.03224609 34.6875 89.5 C33.80320312 88.96536133 32.91890625 88.43072266 32.0078125 87.87988281 C19.83665152 80.50275826 7.78092419 72.9878236 -4 65 C-2.44981411 60.61636175 0.98725466 58.37993404 4.5625 55.6875 C5.19075684 55.20474609 5.81901367 54.72199219 6.46630859 54.22460938 C7.72505832 53.25787926 8.98609224 52.29411527 10.24951172 51.33349609 C12.5570487 49.57564854 14.84101573 47.78829486 17.125 46 C19.12343599 44.44479689 21.02981422 42.98199497 23.19921875 41.671875 C25.24054958 40.08691212 25.24054958 40.08691212 25.63671875 37.328125 C25.84364728 31.34876983 25.84364728 31.34876983 23.671875 25.9375 C21.86108707 24.17565228 19.952553 22.60209477 18 21 C16.89140749 19.77234624 15.80843722 18.52114978 14.75 17.25 C11.24416168 13.15851821 7.44267727 9.40645313 3.55566406 5.68066406 C2.33414102 4.48991416 1.16237488 3.24855457 0 2 C0 1.34 0 0.68 0 0 Z " fill="#FCFDFA" transform="translate(427,820)"/>
<path d="M0 0 C1.1171875 2.19140625 1.1171875 2.19140625 1.875 4.5625 C3.43207041 8.48661204 3.43207041 8.48661204 7.25 10.5 C9.19394078 10.7591921 11.13898148 11.01428782 13.08984375 11.21484375 C20.42273924 11.99319579 20.42273924 11.99319579 23 15 C23.75 17.375 23.75 17.375 23 20 C12.90785482 29.25346275 -4.2279081 31.53639812 -17.21484375 33.3984375 C-22.02396505 34.16273542 -26.78920699 35.10209354 -31.5625 36.0625 C-32.43197266 36.2370874 -33.30144531 36.4116748 -34.19726562 36.59155273 C-38.64636928 37.47999479 -38.64636928 37.47999479 -43.0534668 38.55029297 C-46.11164018 39.25682193 -49.12078714 39.09147419 -52.25 39.0625 C-53.51328125 39.05347656 -54.7765625 39.04445312 -56.078125 39.03515625 C-57.04234375 39.02355469 -58.0065625 39.01195312 -59 39 C-59 38.01 -59 37.02 -59 36 C-58.34 36 -57.68 36 -57 36 C-57 34.35 -57 32.7 -57 31 C-57.60328125 30.93941406 -58.2065625 30.87882812 -58.828125 30.81640625 C-59.62734375 30.73261719 -60.4265625 30.64882813 -61.25 30.5625 C-62.03890625 30.48128906 -62.8278125 30.40007813 -63.640625 30.31640625 C-66 30 -66 30 -67.80078125 29.48828125 C-71.80275081 28.59974449 -75.97728441 28.67530801 -80.06835938 28.5703125 C-84.49407739 28.37121741 -87.50724421 27.79287152 -91 25 C-91.8125 22.1875 -91.8125 22.1875 -91 19 C-82.89314123 9.90562019 -68.49881935 7.05497644 -57.1875 4.4375 C-55.9286499 4.14157959 -54.6697998 3.84565918 -53.37280273 3.54077148 C-8.67652199 -6.7785328 -8.67652199 -6.7785328 0 0 Z " fill="#84B550" transform="translate(349,9)"/>
<path d="M0 0 C64.23129396 7.94919205 64.23129396 7.94919205 82.515625 23.08203125 C83.35609375 23.77683594 84.1965625 24.47164062 85.0625 25.1875 C85.77535156 25.82042969 86.48820313 26.45335938 87.22265625 27.10546875 C89.75645864 28.83387123 91.83314497 29.77959847 94.67578125 30.8515625 C100.27872636 32.98688348 105.11094079 35.92993332 110.125 39.1875 C111.41664063 40.00637695 111.41664063 40.00637695 112.734375 40.84179688 C117.30917182 43.77184531 117.30917182 43.77184531 119 45 C119 45.33 119 45.66 119 46 C113.2255603 46.51328353 109.11739689 45.09351292 103.75 43.0078125 C100.66275216 41.87640633 97.6373267 41.20282432 94.421875 40.55859375 C91.51215202 39.88748022 88.71631183 38.98072882 85.875 38.0625 C75.02316189 34.68861066 64.41893916 32.65371936 53.07324219 32.46606445 C43.86512676 32.19107807 36.51315705 28.45040521 28.6875 23.875 C27.13138577 22.97227473 25.5728721 22.07366996 24.01171875 21.1796875 C22.99791138 20.58776611 22.99791138 20.58776611 21.96362305 19.98388672 C19.98391089 18.99193844 18.16180046 18.44955795 16 18 C16 17.01 16 16.02 16 15 C16.99 14.67 17.98 14.34 19 14 C19.33 13.01 19.66 12.02 20 11 C19.34 10.7525 18.68 10.505 18 10.25 C15.63787495 9.26578123 13.40231119 8.21887786 11.125 7.0625 C7.47538495 5.20993875 3.77758429 3.57399345 0 2 C0 1.34 0 0.68 0 0 Z " fill="#86B653" transform="translate(430,10)"/>
<path d="M0 0 C2.93423195 1.79646854 4.47205355 2.9441071 6 6 C6.30985915 14.52112676 6.30985915 14.52112676 3.0625 18.1875 C-1.24510619 20.73689958 -5.10637631 20.98368449 -10 20 C-12.44508024 17.73382807 -13.53542207 15.92915586 -15 13 C-15.04052587 8.8015194 -14.62808916 5.1196372 -12.5625 1.4375 C-8.49775225 -0.84272435 -4.54299527 -0.74981475 0 0 Z " fill="#87B755" transform="translate(429,931)"/>
<path d="M0 0 C0.66 0.33 1.32 0.66 2 1 C-6.91 9.91 -15.82 18.82 -25 28 C-25.66 27.67 -26.32 27.34 -27 27 C-18.57621927 17.41144959 -9.87408891 8.11869532 0 0 Z " fill="#9AC270" transform="translate(164,112)"/>
<path d="M0 0 C6.6 0.33 13.2 0.66 20 1 C20 1.33 20 1.66 20 2 C14.06 2 8.12 2 2 2 C2 5.96 2 9.92 2 14 C8.6 14.33 15.2 14.66 22 15 C22 15.33 22 15.66 22 16 C18.89585298 16.02903577 15.79174091 16.0468107 12.6875 16.0625 C11.80642578 16.07087891 10.92535156 16.07925781 10.01757812 16.08789062 C9.17001953 16.09111328 8.32246094 16.09433594 7.44921875 16.09765625 C6.66893311 16.10289307 5.88864746 16.10812988 5.0847168 16.11352539 C3 16 3 16 0 15 C0 10.05 0 5.1 0 0 Z " fill="#AFCF8C" transform="translate(211,868)"/>
<path d="M0 0 C0.33 0 0.66 0 1 0 C2.21379503 4.70345575 2.07202527 9.17430687 2 14 C6.29 14 10.58 14 15 14 C15 9.71 15 5.42 15 1 C15.33 1 15.66 1 16 1 C16 5.95 16 10.9 16 16 C13.545625 16.020625 11.09125 16.04125 8.5625 16.0625 C7.78849854 16.071604 7.01449707 16.08070801 6.21704102 16.09008789 C4.47778283 16.09724913 2.73854696 16.05024702 1 16 C0 15 0 15 -0.09765625 11.62109375 C-0.09098369 10.22652923 -0.07902532 8.83198257 -0.0625 7.4375 C-0.05798828 6.72658203 -0.05347656 6.01566406 -0.04882812 5.28320312 C-0.03700864 3.52209987 -0.01907263 1.76103964 0 0 Z " fill="#A6C980" transform="translate(675,868)"/>
<path d="M0 0 C0 0.66 0 1.32 0 2 C-2.28929053 3.17154293 -4.58118362 4.33738074 -6.875 5.5 C-7.52597656 5.83386719 -8.17695313 6.16773438 -8.84765625 6.51171875 C-13.7734375 9 -13.7734375 9 -16 9 C-16 8.34 -16 7.68 -16 7 C-17.98 7.33 -19.96 7.66 -22 8 C-18.75904843 5.29788635 -15.48975779 3.82438075 -11.5625 2.3125 C-10.45003906 1.87550781 -9.33757812 1.43851563 -8.19140625 0.98828125 C-5.22835507 0.07071461 -3.06837602 -0.21220544 0 0 Z " fill="#99C26E" transform="translate(224,51)"/>
<path d="M0 0 C0.66 0.33 1.32 0.66 2 1 C-6.25 9.25 -14.5 17.5 -23 26 C-23.66 25.67 -24.32 25.34 -25 25 C-19.26998741 18.32945505 -13.23971575 12.30405322 -6.69921875 6.4453125 C-4.39360756 4.35658225 -2.1758176 2.22233152 0 0 Z " fill="#9EC474" transform="translate(127,111)"/>
<path d="M0 0 C0.66 0 1.32 0 2 0 C2.84069415 1.60032137 3.67231505 3.20541171 4.5 4.8125 C4.9640625 5.70582031 5.428125 6.59914063 5.90625 7.51953125 C7 10 7 10 7 13 C5.1875 12.9375 5.1875 12.9375 3 12 C0.80697351 7.92723652 -0.4217962 4.63975825 0 0 Z " fill="#EEF4E7" transform="translate(233,457)"/>
<path d="M0 0 C2.39611639 0.31044024 4.79187835 0.62328358 7.1875 0.9375 C8.19780273 1.06801758 8.19780273 1.06801758 9.22851562 1.20117188 C12.85081166 1.67825477 16.42803585 2.23012035 20 3 C20 3.33 20 3.66 20 4 C16.37 4 12.74 4 9 4 C9.33 4.66 9.66 5.32 10 6 C8.5164999 5.57742724 7.03823576 5.13643678 5.5625 4.6875 C4.73878906 4.44386719 3.91507812 4.20023438 3.06640625 3.94921875 C2.04353516 3.47935547 2.04353516 3.47935547 1 3 C0.67 2.01 0.34 1.02 0 0 Z " fill="#A4C87D" transform="translate(430,10)"/>
<path d="M0 0 C0.66 0.33 1.32 0.66 2 1 C-3.28 6.28 -8.56 11.56 -14 17 C-14.66 16.67 -15.32 16.34 -16 16 C-14.625 14 -14.625 14 -13 12 C-12.34 12 -11.68 12 -11 12 C-10.63068359 11.12408203 -10.63068359 11.12408203 -10.25390625 10.23046875 C-8.80583817 7.65462178 -7.19766892 6.20349432 -4.9375 4.3125 C-4.22464844 3.71050781 -3.51179688 3.10851562 -2.77734375 2.48828125 C-1.89755859 1.75158203 -1.89755859 1.75158203 -1 1 C-0.67 0.67 -0.34 0.34 0 0 Z " fill="#9FC576" transform="translate(108,857)"/>
<path d="M0 0 C0.33 0.66 0.66 1.32 1 2 C0.5359375 3.2684375 0.5359375 3.2684375 0.0625 4.5625 C-1.7155721 10.31508619 -1.5042635 16.17097893 0 22 C-2 21 -2 21 -3 18 C-3.49890335 11.3511534 -3.77650061 5.66475091 0 0 Z " fill="#B4D294" transform="translate(266,834)"/>
<path d="M0 0 C0.66 0 1.32 0 2 0 C1.67386719 0.51304687 1.34773438 1.02609375 1.01171875 1.5546875 C-0.34492985 4.83369144 -0.22811635 7.58768534 -0.1875 11.125 C-0.17783203 12.98511719 -0.17783203 12.98511719 -0.16796875 14.8828125 C-0.21262595 17.90678112 -0.21262595 17.90678112 1 20 C0.01 19.67 -0.98 19.34 -2 19 C-2.05380578 16.20807795 -2.09357669 13.4171859 -2.125 10.625 C-2.14175781 9.8309375 -2.15851563 9.036875 -2.17578125 8.21875 C-2.19335473 6.14507985 -2.10335168 4.07116759 -2 2 C-1.34 1.34 -0.68 0.68 0 0 Z " fill="#99C16D" transform="translate(409,874)"/>
<path d="M0 0 C0.66 0.33 1.32 0.66 2 1 C-1.3 4.3 -4.6 7.6 -8 11 C-8.66 10.67 -9.32 10.34 -10 10 C-6.92118304 6.12948725 -3.99926986 2.97088618 0 0 Z " fill="#9EC474" transform="translate(593,753)"/>
<path d="M0 0 C2.4375 0.375 2.4375 0.375 5 1 C5.33 1.66 5.66 2.32 6 3 C4.8553125 2.9071875 4.8553125 2.9071875 3.6875 2.8125 C0.96508434 2.69261747 0.96508434 2.69261747 -0.375 4.5 C-2 6 -2 6 -5.6875 6.1875 C-7.3271875 6.0946875 -7.3271875 6.0946875 -9 6 C-9 5.67 -9 5.34 -9 5 C-8.071875 4.9175 -7.14375 4.835 -6.1875 4.75 C-2.91490121 4.29742448 -2.91490121 4.29742448 -1.125 1.9375 C-0.75375 1.298125 -0.3825 0.65875 0 0 Z " fill="#A9CB84" transform="translate(234,367)"/>
<path d="M0 0 C-1.55603771 3.81936528 -3.95604931 6.26044438 -7 9 C-7.66 9 -8.32 9 -9 9 C-7.45665977 5.21180126 -4.44676575 0 0 0 Z " fill="#98C16D" transform="translate(638,847)"/>
<path d="M0 0 C0.66 0.33 1.32 0.66 2 1 C-0.97 3.97 -3.94 6.94 -7 10 C-7.99 9.67 -8.98 9.34 -10 9 C-6.83047153 5.73991357 -3.60062011 2.77762123 0 0 Z " fill="#9DC473" transform="translate(265,813)"/>
<path d="M0 0 C0.66 0.33 1.32 0.66 2 1 C0.71451591 2.33929505 -0.57858155 3.67128643 -1.875 5 C-2.59429688 5.7425 -3.31359375 6.485 -4.0546875 7.25 C-6 9 -6 9 -8 9 C-6.4169423 4.7257442 -3.49431596 2.73468206 0 0 Z " fill="#DFEBD1" transform="translate(649,857)"/>
<path d="M0 0 C-0.3125 1.875 -0.3125 1.875 -1 4 C-1.99 4.66 -2.98 5.32 -4 6 C-4 5.34 -4 4.68 -4 4 C-5.65 4.66 -7.3 5.32 -9 6 C-3.15384615 0 -3.15384615 0 0 0 Z " fill="#9CC372" transform="translate(180,102)"/>
<path d="M0 0 C0 0.66 0 1.32 0 2 C-3.465 3.485 -3.465 3.485 -7 5 C-7 4.34 -7 3.68 -7 3 C-7.66 2.67 -8.32 2.34 -9 2 C-5.86501708 0.14223235 -3.62528568 -0.20140476 0 0 Z " fill="#A4C87D" transform="translate(224,51)"/>
<path d="M0 0 C0.66 0.33 1.32 0.66 2 1 C1.05125 1.9075 0.1025 2.815 -0.875 3.75 C-3.14549867 6.00978877 -4.83296506 7.96570916 -6 11 C-6.375 8.3125 -6.375 8.3125 -6 5 C-4.176017 2.93601924 -2.27236161 1.60958947 0 0 Z " fill="#A0C577" transform="translate(264,23)"/>
<path d="M0 0 C0.33 0.66 0.66 1.32 1 2 C-0.98567708 1.96744792 -2.97135417 1.93489583 -4.95703125 1.90234375 C-7.20305461 1.91736783 -7.20305461 1.91736783 -10 3 C-9.67 2.01 -9.34 1.02 -9 0 C-5.88173308 -1.55913346 -3.32926126 -0.66585225 0 0 Z " fill="#A6C981" transform="translate(368,222)"/>
<path d="M0 0 C-1.28519565 2.86697492 -2.57129254 4.97607712 -5 7 C-5.66 7 -6.32 7 -7 7 C-3.86206897 0 -3.86206897 0 0 0 Z " fill="#E0ECD3" transform="translate(701,857)"/>
<path d="M0 0 C0.33 0 0.66 0 1 0 C1.33 3.3 1.66 6.6 2 10 C1.34 10 0.68 10 0 10 C-0.66 8.35 -1.32 6.7 -2 5 C-1.67 5 -1.34 5 -1 5 C-0.67 3.35 -0.34 1.7 0 0 Z " fill="#D6E6C4" transform="translate(69,494)"/>
<path d="M0 0 C1.85776765 3.13498292 2.20140476 5.37471432 2 9 C-0.475 8.01 -0.475 8.01 -3 7 C-2.01 6.67 -1.02 6.34 0 6 C0 4.02 0 2.04 0 0 Z " fill="#D7E7C5" transform="translate(372,803)"/>
<path d="M0 0 C-1.49097658 3.7952131 -3.75700849 5.61042731 -7 8 C-4.18918919 0 -4.18918919 0 0 0 Z " fill="#A3C77C" transform="translate(326,141)"/>
<path d="M0 0 C0 0.33 0 0.66 0 1 C-6.625 1.25 -6.625 1.25 -10 -1 C-5.94568308 -2.15837626 -3.78187881 -1.83691257 0 0 Z " fill="#A2C77A" transform="translate(549,55)"/>
<path d="M0 0 C0.66 0 1.32 0 2 0 C2.66 1.65 3.32 3.3 4 5 C3.01 5.99 2.02 6.98 1 8 C0.67 5.36 0.34 2.72 0 0 Z " fill="#D2E4BF" transform="translate(233,457)"/>
<path d="M0 0 C3.39914975 1.13304992 4.05254451 2.12518475 6 5 C5.67 5.66 5.34 6.32 5 7 C3.0625 6.3125 3.0625 6.3125 1 5 C0.25 2.375 0.25 2.375 0 0 Z " fill="#A0C677" transform="translate(581,69)"/>
</svg>
