<?xml version="1.0" encoding="UTF-8"?>
<svg xmlns="http://www.w3.org/2000/svg" xmlns:xlink="http://www.w3.org/1999/xlink" width="100px" height="124px" viewBox="0 0 100 124" version="1.1">
<g id="surface1">
<path style=" stroke:none;fill-rule:nonzero;fill:rgb(99.607843%,99.607843%,99.607843%);fill-opacity:1;" d="M 0 0 C 33 0 66 0 100 0 C 100 40.921875 100 81.839844 100 124 C 67 124 34 124 0 124 C 0 83.078125 0 42.160156 0 0 Z M 0 0 "/>
<path style=" stroke:none;fill-rule:nonzero;fill:rgb(50.588238%,70.588237%,30.19608%);fill-opacity:1;" d="M 53.886719 13.589844 C 53.949219 13.65625 53.949219 13.65625 54.015625 13.71875 C 54.1875 13.734375 54.363281 13.738281 54.539062 13.742188 C 54.648438 13.742188 54.761719 13.742188 54.875 13.746094 C 54.996094 13.746094 55.121094 13.746094 55.246094 13.746094 C 55.503906 13.75 55.765625 13.753906 56.023438 13.757812 C 56.433594 13.765625 56.839844 13.769531 57.25 13.773438 C 59.507812 13.792969 61.632812 14.039062 63.832031 14.539062 C 64.242188 14.625 64.644531 14.683594 65.058594 14.738281 C 65.828125 14.863281 66.429688 15.144531 67.097656 15.53125 C 67.253906 15.617188 67.253906 15.617188 67.414062 15.703125 C 68.210938 16.152344 68.890625 16.707031 69.578125 17.308594 C 69.945312 17.601562 70.300781 17.789062 70.726562 17.992188 C 71.089844 18.234375 71.4375 18.496094 71.789062 18.757812 C 72.007812 18.921875 72.230469 19.082031 72.457031 19.238281 C 73.230469 19.789062 73.753906 20.453125 74.304688 21.214844 C 74.824219 21.953125 74.824219 21.953125 75.597656 22.324219 C 75.90625 22.390625 75.90625 22.390625 76.117188 22.691406 C 76.175781 22.820312 76.234375 22.949219 76.296875 23.082031 C 76.359375 23.222656 76.425781 23.363281 76.496094 23.507812 C 76.722656 24.03125 76.941406 24.558594 77.15625 25.089844 C 77.425781 25.714844 77.738281 26.316406 78.050781 26.917969 C 78.308594 27.457031 78.382812 27.851562 78.375 28.445312 C 78.375 28.597656 78.375 28.597656 78.371094 28.757812 C 78.371094 28.835938 78.371094 28.914062 78.367188 28.992188 C 78.453125 28.992188 78.539062 28.992188 78.625 28.992188 C 78.625 28.910156 78.625 28.824219 78.625 28.734375 C 78.753906 28.777344 78.882812 28.820312 79.015625 28.863281 C 79.320312 29.792969 79.398438 30.773438 79.515625 31.738281 C 79.53125 31.863281 79.546875 31.984375 79.5625 32.109375 C 79.574219 32.21875 79.589844 32.332031 79.601562 32.445312 C 79.664062 32.757812 79.773438 32.984375 79.921875 33.265625 C 79.976562 33.542969 80.023438 33.820312 80.058594 34.097656 C 80.082031 34.242188 80.101562 34.386719 80.121094 34.535156 C 80.140625 34.714844 80.160156 34.894531 80.179688 35.078125 C 80.191406 35.183594 80.203125 35.289062 80.214844 35.398438 C 80.359375 36.925781 80.34375 38.460938 80.34375 39.996094 C 80.34375 40.148438 80.34375 40.296875 80.34375 40.453125 C 80.34375 42.433594 80.300781 44.398438 80.132812 46.371094 C 80.125 46.46875 80.117188 46.566406 80.109375 46.667969 C 80.03125 47.5625 79.9375 48.445312 79.722656 49.324219 C 79.625 49.738281 79.585938 50.160156 79.542969 50.585938 C 79.324219 52.4375 79.324219 52.4375 79.015625 53.199219 C 78.886719 53.242188 78.757812 53.285156 78.625 53.328125 C 78.558594 53.191406 78.558594 53.191406 78.488281 53.050781 C 78.292969 52.6875 78.101562 52.355469 77.851562 52.035156 C 77.546875 51.988281 77.246094 51.945312 76.941406 51.902344 C 76.617188 51.601562 76.34375 51.277344 76.0625 50.9375 C 75.820312 50.660156 75.601562 50.457031 75.308594 50.238281 C 74.890625 49.902344 74.683594 49.527344 74.433594 49.054688 C 74.003906 48.277344 73.558594 47.933594 72.796875 47.503906 C 71.125 46.359375 71.125 46.359375 70.726562 45.5625 C 70.308594 45.542969 70.003906 45.539062 69.617188 45.699219 C 69.300781 45.820312 69.300781 45.820312 68.96875 45.835938 C 68.464844 45.605469 68.335938 45.148438 68.132812 44.65625 C 68.058594 44.660156 67.980469 44.664062 67.902344 44.667969 C 67.269531 44.691406 66.832031 44.695312 66.320312 44.265625 C 66.320312 44.183594 66.320312 44.097656 66.320312 44.007812 C 66.191406 44.015625 66.0625 44.019531 65.929688 44.027344 C 64.359375 44.078125 64.359375 44.078125 63.902344 43.75 C 63.328125 43.40625 62.890625 43.457031 62.238281 43.484375 C 62.132812 43.488281 62.027344 43.488281 61.917969 43.492188 C 61.875 43.449219 61.832031 43.40625 61.789062 43.359375 C 61.535156 43.34375 61.28125 43.339844 61.027344 43.335938 C 60.886719 43.335938 60.75 43.332031 60.605469 43.332031 C 60.207031 43.332031 60.207031 43.332031 59.84375 43.621094 C 59.5625 43.648438 59.5625 43.648438 59.253906 43.644531 C 59.152344 43.644531 59.050781 43.644531 58.945312 43.640625 C 58.679688 43.621094 58.679688 43.621094 58.417969 43.492188 C 58.160156 43.492188 58.160156 43.492188 57.871094 43.53125 C 57.773438 43.542969 57.675781 43.550781 57.574219 43.5625 C 57.242188 43.613281 57.242188 43.613281 56.882812 43.757812 C 56.285156 43.9375 55.726562 43.871094 55.109375 43.835938 C 54.652344 43.839844 54.652344 43.839844 54.328125 44.136719 C 53.738281 44.484375 53.277344 44.472656 52.605469 44.472656 C 52.484375 44.472656 52.363281 44.476562 52.238281 44.476562 C 51.851562 44.480469 51.464844 44.484375 51.078125 44.484375 C 50.6875 44.488281 50.300781 44.492188 49.914062 44.5 C 49.671875 44.5 49.429688 44.503906 49.1875 44.503906 C 49.082031 44.507812 48.972656 44.507812 48.859375 44.507812 C 48.761719 44.507812 48.667969 44.507812 48.570312 44.507812 C 48.289062 44.515625 48.289062 44.515625 47.925781 44.65625 C 46.3125 44.761719 45.117188 44.457031 43.703125 43.714844 C 43.242188 43.480469 42.78125 43.296875 42.289062 43.128906 C 41.3125 42.652344 40.710938 41.980469 40.140625 41.070312 C 40.074219 40.96875 40.007812 40.863281 39.9375 40.753906 C 39.808594 40.550781 39.679688 40.34375 39.550781 40.136719 C 39.410156 39.917969 39.261719 39.710938 39.105469 39.503906 C 38.320312 38.371094 38.441406 36.785156 38.601562 35.464844 C 38.859375 34.300781 38.859375 34.300781 39.25 33.914062 C 39.28125 33.808594 39.3125 33.703125 39.347656 33.597656 C 39.566406 33.148438 39.84375 33.097656 40.285156 32.875 C 40.460938 32.621094 40.632812 32.359375 40.804688 32.101562 C 40.921875 32.023438 41.042969 31.945312 41.164062 31.863281 C 41.609375 31.5625 41.917969 31.230469 42.277344 30.832031 C 42.890625 30.175781 42.890625 30.175781 43.300781 30.117188 C 43.546875 30.171875 43.792969 30.230469 44.042969 30.289062 C 44.230469 30.128906 44.421875 29.964844 44.597656 29.789062 C 45.042969 29.492188 45.601562 29.59375 46.113281 29.640625 C 46.148438 29.519531 46.183594 29.394531 46.21875 29.269531 C 46.375 28.863281 46.375 28.863281 46.761719 28.605469 C 47.613281 28.679688 47.613281 28.679688 47.796875 28.863281 C 48.199219 28.914062 48.378906 28.914062 48.703125 28.667969 C 48.785156 28.582031 48.863281 28.496094 48.949219 28.410156 C 49.320312 28.066406 49.441406 27.964844 49.960938 27.871094 C 50.449219 27.96875 50.683594 28.132812 51.035156 28.476562 C 51.074219 28.394531 51.109375 28.316406 51.148438 28.234375 C 51.296875 27.957031 51.296875 27.957031 51.554688 27.699219 C 52.035156 27.644531 52.300781 27.683594 52.738281 27.894531 C 53.300781 28.140625 53.824219 28.140625 54.433594 28.140625 C 54.601562 28.140625 54.601562 28.140625 54.777344 28.144531 C 55.136719 28.148438 55.496094 28.152344 55.851562 28.152344 C 58.65625 28.164062 58.65625 28.164062 59.785156 28.515625 C 60.144531 28.617188 60.484375 28.644531 60.855469 28.660156 C 61.40625 28.699219 61.703125 28.820312 62.167969 29.136719 C 62.550781 29.304688 62.90625 29.289062 63.324219 29.300781 C 64.214844 29.339844 64.769531 29.542969 65.414062 30.160156 C 65.625 30.410156 65.773438 30.644531 65.933594 30.933594 C 66.316406 30.855469 66.5 30.773438 66.839844 30.546875 C 67.105469 30.566406 67.105469 30.566406 67.359375 30.675781 C 67.503906 30.878906 67.503906 30.878906 67.617188 31.136719 C 67.660156 31.230469 67.703125 31.324219 67.746094 31.421875 C 67.828125 31.609375 67.910156 31.796875 67.992188 31.984375 C 68.351562 32.777344 68.851562 33.285156 69.625 33.695312 C 70.019531 33.960938 70.179688 34.230469 70.417969 34.640625 C 70.710938 35.195312 70.710938 35.195312 71.242188 35.464844 C 71.109375 35.136719 70.96875 34.808594 70.832031 34.480469 C 70.792969 34.386719 70.753906 34.292969 70.714844 34.199219 C 70.453125 33.578125 70.128906 33.132812 69.6875 32.617188 C 69.445312 32.179688 69.226562 31.738281 69.007812 31.289062 C 68.824219 30.914062 68.824219 30.914062 68.511719 30.855469 C 68.429688 30.839844 68.347656 30.824219 68.265625 30.804688 C 68.117188 30.550781 68.117188 30.550781 68.003906 30.238281 C 67.757812 29.625 67.757812 29.625 67.226562 29.253906 C 67.082031 29.238281 66.9375 29.21875 66.789062 29.203125 C 66.292969 29.117188 66.121094 28.976562 65.761719 28.640625 C 65.421875 28.382812 65.039062 28.289062 64.632812 28.175781 C 64.378906 28.085938 64.378906 28.085938 64.121094 27.828125 C 63.976562 27.816406 63.835938 27.808594 63.691406 27.796875 C 63.046875 27.664062 62.925781 27.457031 62.566406 26.921875 C 62.566406 26.835938 62.566406 26.75 62.566406 26.664062 C 62.472656 26.675781 62.378906 26.691406 62.28125 26.703125 C 61.765625 26.648438 61.59375 26.40625 61.269531 26.015625 C 61.269531 25.929688 61.269531 25.847656 61.269531 25.757812 C 60.917969 25.804688 60.785156 25.847656 60.558594 26.125 C 60.503906 26.222656 60.449219 26.316406 60.394531 26.414062 C 60.339844 26.507812 60.285156 26.601562 60.226562 26.699219 C 60.1875 26.773438 60.144531 26.847656 60.105469 26.921875 C 59.621094 26.847656 59.414062 26.65625 59.074219 26.316406 C 57.558594 24.949219 55.921875 24.800781 53.972656 24.867188 C 53.484375 24.847656 53.222656 24.636719 52.851562 24.335938 C 52.851562 24.25 52.851562 24.164062 52.851562 24.074219 C 52.597656 24.101562 52.597656 24.101562 52.339844 24.132812 C 52.246094 24.140625 52.148438 24.152344 52.054688 24.164062 C 51.8125 24.179688 51.8125 24.179688 51.683594 24.335938 C 51.222656 24.363281 50.765625 24.386719 50.304688 24.402344 C 49.785156 24.425781 49.417969 24.457031 48.964844 24.722656 C 48.140625 24.765625 48.140625 24.765625 47.796875 24.59375 C 47.351562 24.558594 46.90625 24.5625 46.460938 24.558594 C 46.339844 24.558594 46.214844 24.554688 46.089844 24.550781 C 45.402344 24.546875 45.007812 24.585938 44.429688 24.980469 C 44.101562 25 44.101562 25 43.757812 24.972656 C 43.09375 24.953125 42.644531 25.085938 42.042969 25.359375 C 41.570312 25.558594 41.085938 25.667969 40.589844 25.78125 C 40.277344 25.863281 40.277344 25.863281 40.101562 26.089844 C 39.78125 26.378906 39.492188 26.332031 39.070312 26.332031 C 38.925781 26.335938 38.78125 26.335938 38.628906 26.339844 C 38.128906 26.261719 37.914062 26.117188 37.566406 25.757812 C 37.453125 25.097656 37.609375 24.75 37.941406 24.1875 C 38.074219 23.964844 38.191406 23.730469 38.304688 23.5 C 38.949219 22.21875 39.75 21.15625 40.671875 20.0625 C 40.980469 19.695312 41.207031 19.386719 41.425781 18.960938 C 41.910156 18.101562 42.738281 17.78125 43.636719 17.460938 C 43.933594 17.355469 43.933594 17.355469 44.171875 17.085938 C 44.386719 16.992188 44.601562 16.898438 44.820312 16.808594 C 45.269531 16.617188 45.703125 16.390625 46.136719 16.171875 C 46.230469 16.125 46.320312 16.082031 46.414062 16.035156 C 46.542969 15.96875 46.542969 15.96875 46.679688 15.898438 C 46.761719 15.859375 46.84375 15.816406 46.929688 15.773438 C 47.101562 15.6875 47.269531 15.597656 47.4375 15.503906 C 47.703125 15.386719 47.929688 15.363281 48.21875 15.332031 C 48.890625 15.207031 49.398438 14.921875 49.976562 14.578125 C 51.222656 13.84375 52.417969 13.273438 53.886719 13.589844 Z M 53.886719 13.589844 "/>
<path style=" stroke:none;fill-rule:nonzero;fill:rgb(50.588238%,70.588237%,30.19608%);fill-opacity:1;" d="M 22.539062 40.773438 C 22.78125 40.8125 22.78125 40.8125 23.058594 40.902344 C 23.261719 41.207031 23.4375 41.492188 23.609375 41.816406 C 23.65625 41.902344 23.703125 41.988281 23.75 42.074219 C 23.867188 42.289062 23.980469 42.5 24.09375 42.714844 C 24.351562 42.671875 24.605469 42.628906 24.871094 42.585938 C 25.90625 44.542969 25.90625 44.542969 25.90625 45.300781 C 26.121094 45.300781 26.335938 45.300781 26.554688 45.300781 C 26.617188 45.417969 26.617188 45.417969 26.679688 45.539062 C 27.207031 46.53125 27.207031 46.53125 28.109375 47.171875 C 28.496094 47.375 28.496094 47.375 28.75 47.722656 C 29 48.070312 29 48.070312 29.476562 48.09375 C 29.929688 48.066406 29.929688 48.066406 30.171875 47.761719 C 30.21875 47.675781 30.265625 47.589844 30.3125 47.503906 C 30.613281 47.53125 30.613281 47.53125 30.957031 47.632812 C 31.164062 47.890625 31.164062 47.890625 31.324219 48.207031 C 31.402344 48.363281 31.402344 48.363281 31.488281 48.523438 C 31.605469 48.796875 31.605469 48.796875 31.605469 49.054688 C 31.742188 49.070312 31.742188 49.070312 31.882812 49.082031 C 32.292969 49.195312 32.507812 49.386719 32.824219 49.671875 C 33.054688 49.867188 33.054688 49.867188 33.484375 50.019531 C 33.902344 50.207031 34.046875 50.3125 34.34375 50.632812 C 34.640625 50.957031 34.640625 50.957031 35.070312 51.0625 C 35.386719 51.019531 35.386719 51.019531 35.621094 50.738281 C 36.019531 50.699219 36.019531 50.699219 36.503906 50.699219 C 36.664062 50.695312 36.820312 50.695312 36.984375 50.691406 C 37.464844 50.742188 37.691406 50.859375 38.082031 51.128906 C 38.765625 51.300781 39.457031 51.273438 40.15625 51.257812 C 40.289062 51.253906 40.421875 51.25 40.558594 51.246094 C 41.714844 51.195312 42.691406 50.941406 43.773438 50.542969 C 45.105469 50.070312 46.25 49.828125 47.660156 49.785156 C 48.519531 49.753906 49.339844 49.683594 50.179688 49.5 C 51.15625 49.296875 52.109375 49.214844 53.109375 49.316406 C 53.238281 49.402344 53.367188 49.484375 53.496094 49.574219 C 53.828125 49.605469 54.152344 49.621094 54.484375 49.628906 C 55.8125 49.691406 56.761719 50.058594 57.902344 50.738281 C 58.011719 50.804688 58.121094 50.867188 58.234375 50.933594 C 58.335938 50.996094 58.441406 51.0625 58.550781 51.128906 C 58.628906 51.175781 58.707031 51.222656 58.792969 51.273438 C 59.667969 51.804688 60.378906 52.410156 61.046875 53.191406 C 61.1875 53.359375 61.332031 53.527344 61.480469 53.6875 C 62.480469 54.789062 62.898438 56.046875 62.875 57.527344 C 62.691406 59.199219 62.152344 61.292969 60.816406 62.394531 C 60.429688 62.640625 60.027344 62.761719 59.59375 62.898438 C 59.015625 63.082031 58.578125 63.28125 58.105469 63.65625 C 57.832031 63.867188 57.539062 64.03125 57.238281 64.195312 C 57.0625 64.292969 56.890625 64.390625 56.71875 64.492188 C 55.566406 65.160156 54.617188 65.390625 53.285156 65.441406 C 52.503906 65.476562 51.738281 65.5625 50.964844 65.679688 C 50.804688 65.703125 50.804688 65.703125 50.644531 65.730469 C 50.136719 65.808594 49.636719 65.90625 49.132812 66.023438 C 48.214844 66.234375 47.265625 66.199219 46.332031 66.078125 C 45.777344 66.003906 45.222656 65.996094 44.664062 65.996094 C 44.578125 65.996094 44.488281 65.996094 44.398438 65.996094 C 43.996094 65.996094 43.621094 66.019531 43.226562 66.09375 C 42.875 66.140625 42.875 66.140625 42.488281 65.882812 C 41.539062 65.566406 40.585938 65.449219 39.589844 65.375 C 37.066406 65.191406 37.066406 65.191406 35.949219 64.320312 C 35.5625 64.027344 35.164062 63.871094 34.714844 63.683594 C 34.460938 63.488281 34.460938 63.488281 34.261719 63.292969 C 33.945312 63.003906 33.78125 62.894531 33.363281 62.746094 C 32.769531 62.453125 32.503906 62.058594 32.125 61.53125 C 31.847656 61.203125 31.585938 61.042969 31.21875 60.835938 C 30.789062 60.292969 30.597656 59.8125 30.441406 59.152344 C 30.355469 59.152344 30.269531 59.152344 30.179688 59.152344 C 30.515625 60.457031 30.515625 60.457031 31.386719 61.449219 C 31.726562 61.730469 31.890625 61.957031 32.125 62.324219 C 32.726562 63.214844 33.519531 63.890625 34.328125 64.589844 C 34.390625 64.648438 34.457031 64.707031 34.527344 64.769531 C 34.9375 65.132812 35.292969 65.339844 35.816406 65.496094 C 36.492188 65.722656 37.097656 65.988281 37.433594 66.660156 C 37.695312 66.796875 37.695312 66.796875 38 66.917969 C 38.367188 67.070312 38.65625 67.214844 38.988281 67.4375 C 39.132812 67.453125 39.277344 67.46875 39.425781 67.484375 C 39.894531 67.566406 39.894531 67.566406 40.1875 67.816406 C 40.65625 68.167969 41.082031 68.203125 41.65625 68.277344 C 41.96875 68.34375 41.96875 68.34375 42.226562 68.601562 C 42.496094 68.621094 42.761719 68.628906 43.03125 68.632812 C 43.957031 68.6875 43.957031 68.6875 44.339844 69.109375 C 44.941406 69.726562 45.792969 69.675781 46.601562 69.742188 C 46.890625 69.765625 47.171875 69.800781 47.457031 69.84375 C 48.941406 70.046875 50.515625 70.148438 51.996094 69.828125 C 52.359375 69.761719 52.695312 69.75 53.066406 69.746094 C 53.207031 69.746094 53.34375 69.742188 53.488281 69.742188 C 53.777344 69.734375 54.070312 69.734375 54.359375 69.734375 C 55.191406 69.714844 55.710938 69.628906 56.386719 69.140625 C 57.078125 68.667969 58.148438 68.855469 58.949219 68.875 C 59.535156 68.882812 59.957031 68.859375 60.492188 68.601562 C 60.777344 68.511719 61.0625 68.421875 61.351562 68.335938 C 61.757812 68.210938 62.160156 68.089844 62.566406 67.953125 C 62.917969 67.925781 63.246094 67.9375 63.601562 67.953125 C 63.859375 68.214844 63.859375 68.214844 63.875 68.449219 C 63.785156 69.257812 63.550781 69.933594 63.210938 70.671875 C 63.148438 70.816406 63.082031 70.960938 63.011719 71.113281 C 62.539062 72.105469 62.003906 72.953125 61.269531 73.777344 C 61.175781 73.886719 61.082031 73.996094 60.984375 74.109375 C 58.984375 76.398438 55.839844 78.769531 52.710938 79.019531 C 51.816406 79.175781 51.003906 79.753906 50.257812 80.25 C 49.777344 80.277344 49.421875 80.273438 48.964844 80.121094 C 48.277344 80.035156 48.277344 80.035156 47.703125 80.316406 C 47.316406 80.570312 47.066406 80.550781 46.605469 80.542969 C 46.453125 80.539062 46.296875 80.539062 46.140625 80.539062 C 45.980469 80.535156 45.816406 80.53125 45.652344 80.527344 C 45.332031 80.519531 45.015625 80.515625 44.695312 80.511719 C 44.554688 80.507812 44.414062 80.503906 44.269531 80.5 C 43.898438 80.492188 43.898438 80.492188 43.523438 80.640625 C 42.09375 80.726562 40.71875 80.574219 39.3125 80.335938 C 38.996094 80.28125 38.679688 80.234375 38.363281 80.183594 C 37.125 79.984375 36.101562 79.714844 35.023438 79.0625 C 34.605469 78.800781 34.605469 78.800781 34.160156 78.792969 C 33.539062 78.667969 33.261719 78.402344 32.8125 77.976562 C 31.910156 77.164062 30.960938 76.496094 29.917969 75.875 C 28.90625 75.246094 28.222656 74.527344 27.496094 73.601562 C 27.246094 73.28125 26.988281 72.972656 26.734375 72.664062 C 26.640625 72.546875 26.546875 72.433594 26.449219 72.3125 C 26.257812 72.078125 26.0625 71.84375 25.867188 71.613281 C 23.574219 68.882812 23.574219 68.882812 23.574219 67.4375 C 23.402344 67.4375 23.234375 67.4375 23.058594 67.4375 C 23.03125 67.328125 23.007812 67.21875 22.980469 67.105469 C 22.910156 66.800781 22.839844 66.496094 22.769531 66.191406 C 22.714844 65.945312 22.65625 65.703125 22.601562 65.457031 C 22.496094 64.984375 22.34375 64.5625 22.148438 64.121094 C 21.859375 63.425781 21.769531 62.734375 21.683594 61.988281 C 21.652344 61.621094 21.652344 61.621094 21.503906 61.351562 C 21.464844 61.035156 21.433594 60.71875 21.410156 60.402344 C 21.402344 60.308594 21.394531 60.214844 21.386719 60.117188 C 21.351562 59.714844 21.316406 59.3125 21.28125 58.910156 C 21.257812 58.617188 21.234375 58.324219 21.207031 58.03125 C 21.195312 57.894531 21.195312 57.894531 21.183594 57.753906 C 21.148438 57.273438 21.148438 57.273438 20.984375 56.824219 C 20.972656 56.507812 20.964844 56.195312 20.96875 55.878906 C 20.96875 55.78125 20.96875 55.6875 20.964844 55.589844 C 20.964844 55.277344 20.96875 54.964844 20.96875 54.65625 C 20.96875 54.546875 20.96875 54.441406 20.96875 54.332031 C 20.980469 48.664062 20.980469 48.664062 21.503906 46.539062 C 21.59375 46.152344 21.65625 45.777344 21.695312 45.378906 C 21.707031 45.277344 21.71875 45.171875 21.730469 45.066406 C 21.75 44.855469 21.769531 44.644531 21.789062 44.433594 C 21.800781 44.335938 21.808594 44.238281 21.816406 44.140625 C 21.832031 44.007812 21.832031 44.007812 21.84375 43.875 C 21.898438 43.582031 22.015625 43.367188 22.148438 43.101562 C 22.21875 42.828125 22.21875 42.828125 22.261719 42.542969 C 22.277344 42.4375 22.292969 42.335938 22.3125 42.230469 C 22.328125 42.121094 22.34375 42.015625 22.359375 41.90625 C 22.378906 41.796875 22.394531 41.6875 22.414062 41.574219 C 22.457031 41.308594 22.496094 41.039062 22.539062 40.773438 Z M 22.539062 40.773438 "/>
<path style=" stroke:none;fill-rule:nonzero;fill:rgb(51.372552%,70.980394%,30.980393%);fill-opacity:1;" d="M 29.015625 6.601562 C 29.015625 6.6875 29.015625 6.773438 29.015625 6.859375 C 28.890625 6.917969 28.765625 6.980469 28.636719 7.042969 C 24.691406 8.945312 21.265625 11.71875 18.132812 14.753906 C 18.03125 14.855469 18.03125 14.855469 17.925781 14.957031 C 17.226562 15.636719 16.5625 16.339844 15.933594 17.085938 C 15.839844 17.1875 15.746094 17.292969 15.652344 17.398438 C 13.902344 19.410156 12.582031 21.695312 11.398438 24.074219 C 11.296875 24.277344 11.195312 24.480469 11.09375 24.683594 C 10.960938 24.953125 10.824219 25.222656 10.691406 25.492188 C 10.472656 25.9375 10.234375 26.367188 9.972656 26.792969 C 9.660156 27.464844 9.433594 28.152344 9.203125 28.859375 C 9.082031 29.214844 8.945312 29.558594 8.800781 29.90625 C 8.617188 30.355469 8.476562 30.796875 8.355469 31.265625 C 8.238281 31.714844 8.101562 32.117188 7.902344 32.535156 C 7.617188 33.144531 7.484375 33.761719 7.347656 34.414062 C 7.269531 34.746094 7.179688 35.054688 7.066406 35.375 C 6.4375 37.175781 6.019531 39.140625 5.828125 41.03125 C 5.785156 41.117188 5.742188 41.203125 5.699219 41.289062 C 5.402344 43.160156 5.398438 45.082031 5.40625 46.96875 C 5.40625 47.386719 5.40625 47.800781 5.40625 48.21875 C 5.402344 49.5625 5.441406 50.839844 5.699219 52.164062 C 5.746094 52.507812 5.78125 52.851562 5.820312 53.199219 C 5.855469 53.484375 5.886719 53.773438 5.921875 54.0625 C 5.945312 54.265625 5.96875 54.46875 5.992188 54.671875 C 6.3125 57.460938 7.027344 60.152344 8.054688 62.765625 C 8.222656 63.199219 8.378906 63.632812 8.53125 64.070312 C 8.582031 64.210938 8.632812 64.355469 8.6875 64.5 C 8.773438 64.746094 8.855469 64.988281 8.9375 65.234375 C 9.023438 65.234375 9.109375 65.234375 9.195312 65.234375 C 8.894531 63.765625 8.894531 63.765625 8.402344 62.355469 C 8.140625 61.75 8.046875 61.160156 7.964844 60.507812 C 7.914062 60.144531 7.851562 59.792969 7.777344 59.433594 C 7.648438 58.8125 7.546875 58.1875 7.457031 57.558594 C 7.441406 57.445312 7.425781 57.332031 7.40625 57.21875 C 7.238281 55.996094 7.113281 54.773438 6.996094 53.546875 C 6.980469 53.394531 6.964844 53.238281 6.949219 53.082031 C 6.9375 52.945312 6.921875 52.808594 6.910156 52.667969 C 6.875 52.304688 6.875 52.304688 6.800781 51.996094 C 6.726562 51.597656 6.714844 51.21875 6.710938 50.808594 C 6.710938 50.640625 6.710938 50.476562 6.707031 50.304688 C 6.707031 50.121094 6.707031 49.9375 6.703125 49.753906 C 6.703125 49.664062 6.703125 49.570312 6.703125 49.472656 C 6.699219 48.976562 6.699219 48.476562 6.699219 47.980469 C 6.695312 47.574219 6.695312 47.171875 6.691406 46.769531 C 6.652344 42.984375 6.816406 39.113281 8.277344 35.5625 C 8.558594 34.863281 8.804688 34.152344 9.058594 33.441406 C 9.117188 33.285156 9.171875 33.125 9.234375 32.957031 C 9.535156 32.105469 9.828125 31.253906 10.085938 30.386719 C 10.292969 29.699219 10.539062 29.105469 10.878906 28.476562 C 11.132812 27.902344 11.132812 27.902344 11.363281 27.324219 C 11.671875 26.554688 12.109375 25.902344 12.578125 25.222656 C 12.9375 24.691406 13.261719 24.152344 13.570312 23.589844 C 15.007812 21.027344 17.019531 18.6875 19.042969 16.566406 C 19.148438 16.453125 19.257812 16.34375 19.367188 16.226562 C 20.472656 15.09375 21.699219 14.027344 23.058594 13.203125 C 23.140625 13.203125 23.226562 13.203125 23.316406 13.203125 C 23.242188 13.613281 23.128906 13.824219 22.832031 14.113281 C 22.757812 14.1875 22.683594 14.261719 22.605469 14.335938 C 22.523438 14.414062 22.445312 14.496094 22.359375 14.574219 C 22.277344 14.65625 22.191406 14.738281 22.105469 14.824219 C 21.839844 15.089844 21.570312 15.351562 21.300781 15.613281 C 19.691406 17.171875 19.691406 17.171875 18.265625 18.898438 C 18.195312 18.992188 18.121094 19.085938 18.050781 19.183594 C 17.550781 19.855469 17.066406 20.542969 16.582031 21.226562 C 16.484375 21.359375 16.484375 21.359375 16.386719 21.496094 C 15.75 22.40625 15.222656 23.253906 14.828125 24.296875 C 14.582031 24.847656 14.269531 25.34375 13.949219 25.855469 C 13.375 26.769531 12.867188 27.695312 12.398438 28.667969 C 12.21875 29.039062 12.03125 29.398438 11.835938 29.761719 C 11.507812 30.417969 11.277344 31.101562 11.039062 31.792969 C 10.859375 32.324219 10.664062 32.839844 10.4375 33.355469 C 9.667969 35.167969 9.136719 37.023438 8.886719 38.976562 C 8.808594 39.476562 8.808594 39.476562 8.683594 39.773438 C 7.964844 41.667969 8.238281 44.117188 8.242188 46.105469 C 8.242188 46.269531 8.242188 46.4375 8.242188 46.605469 C 8.242188 48.960938 8.324219 51.246094 8.742188 53.566406 C 8.816406 54.023438 8.871094 54.480469 8.921875 54.941406 C 9.046875 55.882812 9.28125 56.757812 9.570312 57.664062 C 9.664062 57.96875 9.757812 58.273438 9.851562 58.578125 C 9.894531 58.722656 9.9375 58.863281 9.984375 59.011719 C 10.132812 59.515625 10.265625 60.019531 10.394531 60.527344 C 10.578125 61.234375 10.816406 61.867188 11.140625 62.519531 C 11.539062 63.34375 11.863281 64.136719 12.089844 65.027344 C 12.347656 66.023438 12.722656 66.988281 13.082031 67.953125 C 13.121094 68.058594 13.15625 68.160156 13.195312 68.269531 C 13.472656 69.015625 13.84375 69.695312 14.25 70.382812 C 14.515625 70.839844 14.757812 71.296875 14.96875 71.78125 C 15.074219 72.015625 15.179688 72.25 15.285156 72.484375 C 15.34375 72.617188 15.40625 72.753906 15.464844 72.890625 C 15.933594 73.855469 16.476562 74.480469 17.273438 75.167969 C 17.773438 75.605469 18.113281 76.007812 18.378906 76.621094 C 18.582031 76.992188 18.863281 77.242188 19.171875 77.53125 C 20.398438 78.742188 20.398438 78.742188 20.78125 79.222656 C 22.398438 81.074219 25.742188 83.734375 28.101562 84.34375 C 29.304688 84.703125 30.800781 85.515625 31.519531 86.59375 C 31.785156 86.910156 32 86.992188 32.382812 87.125 C 32.777344 87.269531 33.066406 87.394531 33.417969 87.628906 C 33.617188 87.691406 33.816406 87.746094 34.019531 87.796875 C 34.59375 87.960938 35.058594 88.1875 35.558594 88.511719 C 35.859375 88.652344 36.097656 88.714844 36.417969 88.78125 C 36.855469 88.871094 37.242188 88.992188 37.652344 89.160156 C 39.683594 89.992188 41.628906 90.160156 43.792969 90.289062 C 44.707031 90.347656 45.628906 90.445312 46.503906 90.734375 C 46.890625 90.75 47.277344 90.757812 47.664062 90.761719 C 47.78125 90.761719 47.898438 90.761719 48.015625 90.765625 C 48.398438 90.765625 48.777344 90.765625 49.15625 90.765625 C 49.289062 90.765625 49.417969 90.765625 49.550781 90.769531 C 52.398438 90.765625 55.136719 90.53125 57.917969 89.882812 C 58.238281 89.8125 58.5625 89.757812 58.890625 89.707031 C 60.304688 89.457031 61.695312 89.003906 63.003906 88.40625 C 63.375 88.261719 63.726562 88.199219 64.121094 88.144531 C 64.121094 88.0625 64.121094 87.976562 64.121094 87.886719 C 64.375 87.84375 64.632812 87.800781 64.894531 87.757812 C 64.894531 87.671875 64.894531 87.585938 64.894531 87.5 C 65.464844 87.207031 65.867188 87.097656 66.507812 87.085938 C 67.117188 87.050781 67.375 86.914062 67.792969 86.472656 C 67.871094 86.378906 67.945312 86.289062 68.023438 86.191406 C 68.300781 85.90625 68.542969 85.824219 68.910156 85.6875 C 69.125 85.519531 69.125 85.519531 69.316406 85.324219 C 69.953125 84.753906 70.722656 84.464844 71.507812 84.160156 C 71.902344 84.003906 72.179688 83.851562 72.5 83.574219 C 72.941406 83.199219 73.417969 82.945312 73.929688 82.683594 C 74.574219 82.371094 74.574219 82.371094 75.128906 81.933594 C 75.300781 81.894531 75.46875 81.859375 75.640625 81.828125 C 76.519531 81.550781 76.992188 80.773438 77.542969 80.078125 C 78.109375 79.390625 78.761719 78.761719 79.460938 78.210938 C 79.988281 77.777344 80.375 77.226562 80.785156 76.6875 C 81.386719 75.90625 82.0625 75.234375 82.773438 74.554688 C 83.675781 73.660156 84.371094 72.902344 84.84375 71.707031 C 84.929688 71.535156 85.015625 71.363281 85.105469 71.191406 C 85.316406 71.191406 85.53125 71.191406 85.75 71.191406 C 85.765625 71.09375 85.78125 71 85.796875 70.902344 C 85.878906 70.546875 85.988281 70.308594 86.167969 69.996094 C 86.226562 69.890625 86.285156 69.789062 86.347656 69.683594 C 86.410156 69.574219 86.472656 69.464844 86.535156 69.355469 C 87.0625 68.421875 87.53125 67.488281 87.953125 66.503906 C 88.375 65.535156 88.847656 64.589844 89.328125 63.644531 C 89.402344 63.496094 89.402344 63.496094 89.480469 63.34375 C 89.589844 63.128906 89.699219 62.917969 89.808594 62.703125 C 90.136719 62.074219 90.398438 61.464844 90.59375 60.777344 C 90.617188 60.6875 90.644531 60.597656 90.671875 60.503906 C 90.761719 60.183594 90.847656 59.863281 90.933594 59.539062 C 90.96875 59.414062 91 59.289062 91.035156 59.15625 C 91.640625 56.929688 92.15625 54.683594 92.617188 52.421875 C 92.636719 52.328125 92.660156 52.234375 92.683594 52.136719 C 92.875 51.28125 92.914062 50.464844 92.910156 49.589844 C 92.910156 49.445312 92.910156 49.300781 92.910156 49.152344 C 92.910156 48.851562 92.910156 48.546875 92.910156 48.242188 C 92.90625 47.785156 92.910156 47.328125 92.910156 46.871094 C 92.914062 44.65625 92.816406 42.476562 92.375 40.304688 C 92.171875 39.261719 92.003906 38.222656 91.847656 37.171875 C 91.382812 33.652344 91.382812 33.652344 90.027344 30.417969 C 89.886719 30.179688 89.75 29.941406 89.613281 29.703125 C 89.523438 29.542969 89.429688 29.386719 89.339844 29.230469 C 89.027344 28.6875 88.800781 28.164062 88.601562 27.570312 C 88.171875 26.410156 87.675781 25.257812 86.980469 24.230469 C 86.675781 23.761719 86.484375 23.261719 86.285156 22.742188 C 85.1875 19.875 82.753906 17.511719 80.4375 15.570312 C 79.484375 14.761719 78.648438 13.84375 77.898438 12.847656 C 77.609375 12.464844 77.328125 12.175781 76.949219 11.882812 C 76.460938 11.476562 76.164062 11.015625 75.851562 10.46875 C 75.804688 10.390625 75.761719 10.3125 75.714844 10.234375 C 75.480469 9.804688 75.324219 9.417969 75.257812 8.929688 C 75.71875 9.085938 75.792969 9.21875 76.070312 9.601562 C 77.066406 10.917969 78.410156 11.675781 79.921875 12.296875 C 79.921875 12.382812 79.921875 12.46875 79.921875 12.554688 C 80.078125 12.597656 80.230469 12.640625 80.390625 12.683594 C 82.507812 13.390625 84.410156 14.820312 85.453125 16.792969 C 85.523438 16.933594 85.589844 17.074219 85.664062 17.222656 C 85.972656 17.765625 86.265625 18.050781 86.820312 18.339844 C 87.980469 18.980469 88.792969 20.328125 89.378906 21.488281 C 89.378906 21.65625 89.378906 21.828125 89.378906 22.003906 C 89.464844 22.003906 89.550781 22.003906 89.636719 22.003906 C 90.199219 23.089844 90.738281 24.160156 91.152344 25.3125 C 91.296875 25.695312 91.453125 26.070312 91.613281 26.445312 C 92.039062 27.457031 92.394531 28.484375 92.746094 29.519531 C 92.78125 29.621094 92.816406 29.71875 92.851562 29.824219 C 93.300781 31.132812 93.710938 32.445312 94.039062 33.792969 C 94.167969 34.304688 94.335938 34.796875 94.511719 35.296875 C 94.769531 36.042969 94.933594 36.773438 95.066406 37.546875 C 95.164062 38.117188 95.300781 38.664062 95.464844 39.21875 C 96.1875 41.652344 96.421875 44.167969 96.40625 46.695312 C 96.40625 46.796875 96.40625 46.902344 96.40625 47.007812 C 96.398438 48.632812 96.347656 50.25 96.257812 51.871094 C 96.253906 51.96875 96.25 52.0625 96.246094 52.164062 C 96.179688 53.320312 96.085938 54.472656 95.941406 55.621094 C 95.707031 57.171875 95.707031 57.171875 95.984375 58.632812 C 96.765625 58.59375 97.226562 58.21875 97.796875 57.730469 C 97.863281 57.652344 97.925781 57.578125 97.992188 57.5 C 98.054688 57.449219 98.121094 57.394531 98.1875 57.339844 C 98.46875 57.378906 98.46875 57.378906 98.703125 57.46875 C 98.886719 59.203125 98.390625 60.734375 97.910156 62.382812 C 97.71875 63.058594 97.566406 63.742188 97.410156 64.425781 C 97.253906 64.925781 97.035156 65.304688 96.761719 65.753906 C 96.664062 65.945312 96.566406 66.140625 96.46875 66.335938 C 96.144531 66.996094 95.800781 67.640625 95.449219 68.285156 C 95.238281 68.675781 95.042969 69.0625 94.875 69.472656 C 94.722656 69.824219 94.574219 70.085938 94.347656 70.390625 C 93.585938 71.5 92.949219 72.785156 92.496094 74.054688 C 92.265625 74.660156 91.9375 75.195312 91.597656 75.746094 C 91.542969 75.832031 91.488281 75.917969 91.433594 76.003906 C 91.105469 76.527344 90.738281 76.992188 90.332031 77.457031 C 90.101562 77.722656 89.917969 78.007812 89.734375 78.308594 C 89.324219 78.96875 88.894531 79.617188 88.457031 80.261719 C 88.171875 80.691406 87.894531 81.121094 87.628906 81.5625 C 86.050781 84.179688 86.050781 84.179688 85.007812 84.699219 C 84.421875 84.992188 83.9375 85.398438 83.429688 85.808594 C 82.511719 86.546875 81.660156 87.148438 80.546875 87.554688 C 79.964844 87.773438 79.386719 87.992188 78.8125 88.226562 C 78.628906 88.300781 78.628906 88.300781 78.441406 88.378906 C 78.109375 88.519531 78.109375 88.519531 77.875 88.722656 C 77.550781 88.949219 77.257812 89.058594 76.882812 89.183594 C 76.746094 89.226562 76.613281 89.273438 76.472656 89.320312 C 76.261719 89.386719 76.261719 89.386719 76.042969 89.457031 C 75.902344 89.503906 75.761719 89.550781 75.617188 89.597656 C 75.027344 89.792969 74.449219 89.976562 73.835938 90.085938 C 73.835938 90.171875 73.835938 90.257812 73.835938 90.347656 C 73.761719 90.371094 73.6875 90.398438 73.613281 90.421875 C 72.921875 90.683594 72.285156 91 71.648438 91.375 C 69.609375 92.5625 67.574219 92.878906 65.265625 93.179688 C 64.527344 93.277344 63.816406 93.414062 63.097656 93.613281 C 62.457031 93.769531 61.8125 93.859375 61.164062 93.953125 C 60.539062 94.050781 59.921875 94.160156 59.300781 94.292969 C 57.050781 94.753906 54.757812 94.953125 52.460938 95.007812 C 52.367188 95.007812 52.269531 95.011719 52.171875 95.015625 C 50.667969 95.054688 49.164062 94.988281 47.660156 94.917969 C 47.441406 94.90625 47.222656 94.898438 47 94.886719 C 44.054688 94.761719 44.054688 94.761719 43.523438 94.230469 C 43.265625 94.207031 43.007812 94.183594 42.75 94.164062 C 41.34375 94.058594 40.15625 93.726562 38.859375 93.195312 C 38.757812 93.152344 38.65625 93.109375 38.550781 93.066406 C 38.445312 93.023438 38.335938 92.980469 38.230469 92.9375 C 38.011719 92.847656 37.792969 92.757812 37.574219 92.667969 C 37.464844 92.625 37.355469 92.578125 37.242188 92.53125 C 36.527344 92.246094 35.816406 92.023438 35.070312 91.835938 C 33.535156 91.441406 32.21875 90.703125 30.878906 89.875 C 30.550781 89.6875 30.222656 89.546875 29.875 89.40625 C 27.882812 88.605469 26.046875 87.5625 24.253906 86.390625 C 23.976562 86.210938 23.695312 86.039062 23.414062 85.867188 C 22.066406 85.054688 20.796875 84.171875 19.652344 83.089844 C 19.582031 83.023438 19.515625 82.960938 19.441406 82.890625 C 19.257812 82.714844 19.070312 82.53125 18.886719 82.347656 C 18.472656 82.023438 18.121094 81.9375 17.617188 81.804688 C 17.03125 81.351562 16.6875 80.660156 16.371094 80.007812 C 16.144531 79.660156 15.867188 79.472656 15.542969 79.214844 C 15.308594 78.945312 15.082031 78.675781 14.863281 78.390625 C 14.773438 78.269531 14.773438 78.269531 14.675781 78.148438 C 14.046875 77.332031 13.496094 76.46875 12.953125 75.589844 C 12.839844 75.414062 12.839844 75.414062 12.726562 75.234375 C 12.40625 74.722656 12.136719 74.226562 11.925781 73.65625 C 11.519531 72.59375 10.851562 71.699219 10.160156 70.800781 C 9.707031 70.207031 9.332031 69.609375 8.988281 68.945312 C 8.808594 68.605469 8.609375 68.285156 8.402344 67.960938 C 8.046875 67.378906 7.84375 66.792969 7.640625 66.144531 C 7.472656 65.632812 7.25 65.160156 7.023438 64.671875 C 6.820312 64.234375 6.648438 63.789062 6.472656 63.34375 C 6.355469 63.058594 6.234375 62.785156 6.105469 62.507812 C 5.804688 61.851562 5.574219 61.167969 5.339844 60.484375 C 5.167969 59.988281 4.984375 59.5 4.777344 59.015625 C 4.496094 58.332031 4.332031 57.621094 4.160156 56.902344 C 4.039062 56.394531 3.902344 55.890625 3.765625 55.386719 C 1.792969 48.058594 1.792969 48.058594 2.851562 45.949219 C 2.875 45.742188 2.890625 45.539062 2.90625 45.332031 C 2.914062 45.203125 2.925781 45.074219 2.933594 44.941406 C 2.941406 44.800781 2.953125 44.660156 2.964844 44.519531 C 3.054688 43.324219 3.164062 42.136719 3.304688 40.949219 C 3.320312 40.816406 3.332031 40.683594 3.347656 40.542969 C 3.433594 39.863281 3.550781 39.230469 3.757812 38.570312 C 3.835938 38.238281 3.914062 37.902344 3.992188 37.570312 C 4.207031 36.636719 4.445312 35.710938 4.691406 34.785156 C 4.839844 34.222656 4.988281 33.65625 5.125 33.085938 C 5.753906 30.554688 6.742188 28.148438 7.773438 25.757812 C 7.859375 25.757812 7.941406 25.757812 8.03125 25.757812 C 8.078125 25.542969 8.078125 25.542969 8.121094 25.324219 C 8.296875 24.632812 8.589844 24.011719 8.898438 23.371094 C 8.949219 23.257812 9.003906 23.140625 9.058594 23.023438 C 9.539062 22.007812 10.175781 21.1875 10.921875 20.355469 C 11.300781 19.929688 11.640625 19.484375 11.980469 19.027344 C 12.511719 18.328125 13.082031 17.675781 13.683594 17.035156 C 13.761719 16.953125 13.839844 16.867188 13.921875 16.78125 C 14.398438 16.277344 14.898438 15.808594 15.425781 15.355469 C 15.714844 15.105469 15.992188 14.847656 16.269531 14.585938 C 17.121094 13.78125 18.015625 13.054688 18.945312 12.34375 C 19.167969 12.167969 19.386719 11.992188 19.605469 11.816406 C 21.6875 10.136719 23.960938 8.664062 26.351562 7.457031 C 26.476562 7.394531 26.476562 7.394531 26.601562 7.332031 C 28.238281 6.527344 28.238281 6.527344 29.015625 6.601562 Z M 29.015625 6.601562 "/>
<path style=" stroke:none;fill-rule:nonzero;fill:rgb(52.549022%,71.764708%,32.549021%);fill-opacity:1;" d="M 80.933594 96.355469 C 81.164062 96.359375 81.164062 96.359375 81.398438 96.359375 C 82.851562 96.386719 84.136719 96.699219 85.492188 97.207031 C 85.726562 97.292969 85.726562 97.292969 85.964844 97.378906 C 86.332031 97.523438 86.691406 97.683594 87.046875 97.855469 C 87.140625 97.898438 87.238281 97.945312 87.335938 97.992188 C 87.984375 98.328125 88.582031 98.742188 89.183594 99.15625 C 89.304688 99.238281 89.304688 99.238281 89.429688 99.324219 C 89.742188 99.546875 89.988281 99.722656 90.164062 100.074219 C 90.15625 100.3125 90.15625 100.3125 89.847656 100.644531 C 89.734375 100.75 89.625 100.851562 89.507812 100.960938 C 89.464844 101.089844 89.421875 101.214844 89.378906 101.347656 C 89.109375 101.460938 89.109375 101.460938 88.730469 101.476562 C 88.527344 101.308594 88.328125 101.136719 88.136719 100.953125 C 86.09375 99.300781 83.566406 98.488281 80.976562 98.460938 C 80.792969 98.453125 80.792969 98.453125 80.609375 98.449219 C 79.585938 98.441406 78.726562 98.652344 77.898438 99.273438 C 76.445312 100.851562 76.671875 102.011719 76.554688 104.324219 C 84.121094 104.324219 91.6875 104.324219 99.480469 104.324219 C 99.480469 104.921875 99.480469 105.523438 99.480469 106.136719 C 98.414062 106.136719 97.34375 106.136719 96.242188 106.136719 C 96.242188 111.261719 96.242188 116.390625 96.242188 121.671875 C 95.558594 121.671875 94.875 121.671875 94.171875 121.671875 C 94.171875 121.234375 94.171875 121.234375 94.175781 120.792969 C 94.179688 119.835938 94.179688 118.878906 94.175781 117.917969 C 94.171875 117.339844 94.171875 116.757812 94.175781 116.179688 C 94.179688 115.617188 94.175781 115.058594 94.171875 114.496094 C 94.171875 114.28125 94.171875 114.070312 94.175781 113.855469 C 94.222656 112.6875 94.222656 112.6875 93.8125 111.632812 C 93.554688 111.398438 93.308594 111.222656 93.003906 111.054688 C 92.902344 110.996094 92.796875 110.933594 92.6875 110.871094 C 92.007812 110.71875 91.410156 110.710938 90.753906 110.96875 C 90.144531 111.359375 89.820312 111.765625 89.636719 112.480469 C 89.566406 113.125 89.53125 113.773438 89.507812 114.421875 C 89.1875 114.425781 88.867188 114.429688 88.542969 114.429688 C 88.453125 114.429688 88.359375 114.433594 88.265625 114.433594 C 88.03125 114.433594 87.796875 114.429688 87.566406 114.421875 C 87.277344 114.132812 87.382812 113.242188 87.367188 112.847656 C 87.292969 112.253906 87.167969 111.777344 86.691406 111.390625 C 86.613281 111.351562 86.535156 111.3125 86.457031 111.273438 C 86.21875 111.160156 85.984375 111.042969 85.75 110.925781 C 84.960938 110.84375 84.371094 110.933594 83.679688 111.316406 C 83.246094 111.679688 82.945312 112.046875 82.863281 112.617188 C 82.765625 114.414062 82.765625 114.414062 83.550781 115.976562 C 83.644531 116.101562 83.742188 116.226562 83.839844 116.355469 C 84.261719 116.671875 84.605469 116.75 85.117188 116.835938 C 85.363281 116.882812 85.363281 116.882812 85.492188 117.011719 C 86.277344 117.039062 87.042969 116.96875 87.824219 116.882812 C 87.949219 117.5 87.996094 118.066406 87.953125 118.691406 C 87.054688 119.292969 85.367188 119.070312 84.332031 118.867188 C 83.011719 118.503906 82.089844 117.8125 81.375 116.648438 C 80.558594 115.167969 80.371094 113.230469 80.839844 111.601562 C 81.429688 110.367188 82.261719 109.578125 83.5 109 C 84.617188 108.632812 85.824219 108.710938 86.890625 109.207031 C 87.578125 109.605469 88.140625 110.015625 88.601562 110.667969 C 88.695312 110.46875 88.695312 110.46875 88.796875 110.261719 C 89.199219 109.558594 89.8125 109.144531 90.535156 108.808594 C 91.507812 108.609375 92.359375 108.699219 93.265625 109.113281 C 93.660156 109.382812 93.660156 109.382812 93.910156 109.632812 C 93.910156 109.71875 93.910156 109.804688 93.910156 109.890625 C 94.039062 109.890625 94.167969 109.890625 94.300781 109.890625 C 94.300781 108.652344 94.300781 107.414062 94.300781 106.136719 C 88.445312 106.136719 82.589844 106.136719 76.554688 106.136719 C 76.554688 111.261719 76.554688 116.390625 76.554688 121.671875 C 75.828125 121.671875 75.101562 121.671875 74.351562 121.671875 C 74.351562 116.585938 74.351562 111.503906 74.351562 106.265625 C 73.242188 106.265625 72.128906 106.265625 70.984375 106.265625 C 70.984375 111.351562 70.984375 116.433594 70.984375 121.671875 C 70.257812 121.671875 69.53125 121.671875 68.78125 121.671875 C 68.78125 121.492188 68.78125 121.3125 68.78125 121.128906 C 68.777344 119.449219 68.769531 117.765625 68.757812 116.082031 C 68.753906 115.21875 68.75 114.355469 68.746094 113.488281 C 68.746094 112.65625 68.742188 111.820312 68.734375 110.988281 C 68.734375 110.667969 68.730469 110.351562 68.730469 110.03125 C 68.730469 109.585938 68.726562 109.140625 68.722656 108.695312 C 68.722656 108.5625 68.726562 108.429688 68.726562 108.296875 C 68.71875 107.730469 68.710938 107.398438 68.414062 106.910156 C 67.875 106.421875 67.5 106.355469 66.800781 106.34375 C 66.710938 106.339844 66.617188 106.339844 66.523438 106.335938 C 66.234375 106.328125 65.941406 106.320312 65.648438 106.316406 C 65.453125 106.3125 65.253906 106.304688 65.054688 106.300781 C 64.570312 106.289062 64.085938 106.277344 63.601562 106.265625 C 63.601562 108.046875 63.601562 109.828125 63.613281 111.605469 C 63.613281 112.433594 63.617188 113.261719 63.617188 114.085938 C 63.617188 114.882812 63.617188 115.679688 63.625 116.476562 C 63.625 116.78125 63.625 117.085938 63.625 117.390625 C 63.621094 117.816406 63.625 118.242188 63.628906 118.667969 C 63.628906 118.859375 63.628906 118.859375 63.625 119.050781 C 63.617188 119.667969 63.617188 119.667969 63.910156 120.183594 C 64.144531 120.351562 64.144531 120.351562 64.507812 120.503906 C 64.433594 120.957031 64.277344 121.183594 63.957031 121.507812 C 63.84375 121.628906 63.84375 121.628906 63.730469 121.75 C 63.390625 121.984375 63.230469 121.996094 62.824219 121.929688 C 62.472656 121.742188 62.472656 121.742188 62.070312 121.46875 C 61.910156 121.359375 61.746094 121.253906 61.585938 121.144531 C 61.496094 121.085938 61.40625 121.023438 61.3125 120.960938 C 60.722656 120.574219 60.125 120.207031 59.527344 119.832031 C 59.394531 119.75 59.261719 119.667969 59.125 119.582031 C 58.332031 119.085938 57.535156 118.597656 56.734375 118.113281 C 56.484375 117.960938 56.234375 117.808594 55.984375 117.65625 C 55.414062 117.304688 54.84375 116.964844 54.246094 116.65625 C 52.871094 115.921875 52.871094 115.921875 52.605469 115.328125 C 52.4375 114.664062 52.464844 114.023438 52.71875 113.386719 C 53.117188 112.859375 53.585938 112.5625 54.144531 112.222656 C 54.398438 112.035156 54.652344 111.851562 54.90625 111.664062 C 55.019531 111.582031 55.128906 111.503906 55.246094 111.421875 C 55.578125 111.179688 55.898438 110.925781 56.21875 110.667969 C 56.1875 109.945312 55.726562 109.605469 55.230469 109.140625 C 55.0625 108.980469 54.898438 108.816406 54.734375 108.65625 C 54.652344 108.578125 54.574219 108.503906 54.492188 108.421875 C 54.15625 108.089844 53.84375 107.738281 53.539062 107.375 C 53.371094 107.164062 53.371094 107.164062 53.152344 106.984375 C 52.980469 106.785156 52.980469 106.785156 52.980469 106.265625 C 52.082031 106.265625 51.183594 106.265625 50.257812 106.265625 C 50.257812 111.351562 50.257812 116.433594 50.257812 121.671875 C 49.574219 121.671875 48.890625 121.671875 48.1875 121.671875 C 48.183594 121.496094 48.183594 121.324219 48.183594 121.144531 C 48.171875 119.507812 48.160156 117.871094 48.148438 116.234375 C 48.144531 115.394531 48.136719 114.554688 48.132812 113.710938 C 48.128906 112.902344 48.121094 112.089844 48.113281 111.277344 C 48.113281 110.96875 48.109375 110.65625 48.109375 110.347656 C 48.105469 109.914062 48.101562 109.480469 48.097656 109.046875 C 48.097656 108.917969 48.097656 108.789062 48.097656 108.660156 C 48.09375 107.820312 48.09375 107.820312 47.796875 107.042969 C 46.484375 105.765625 44.617188 106.203125 42.875 106.136719 C 42.875 111.261719 42.875 116.390625 42.875 121.671875 C 42.191406 121.671875 41.507812 121.671875 40.804688 121.671875 C 40.804688 121.511719 40.804688 121.355469 40.800781 121.191406 C 40.800781 119.703125 40.792969 118.214844 40.785156 116.726562 C 40.78125 115.960938 40.777344 115.195312 40.777344 114.429688 C 40.777344 113.6875 40.773438 112.949219 40.769531 112.210938 C 40.765625 111.929688 40.765625 111.648438 40.765625 111.367188 C 40.765625 110.96875 40.761719 110.574219 40.757812 110.179688 C 40.761719 110.0625 40.761719 109.949219 40.761719 109.832031 C 40.742188 108.792969 40.386719 107.949219 39.679688 107.191406 C 38.644531 106.527344 37.703125 106.222656 36.488281 106.453125 C 35.726562 106.660156 35.160156 107.03125 34.714844 107.691406 C 34.605469 108.003906 34.539062 108.292969 34.492188 108.621094 C 34.457031 108.855469 34.457031 108.855469 34.328125 108.984375 C 34.207031 109.859375 34.398438 110.5625 34.84375 111.316406 C 35.273438 111.847656 35.730469 112.195312 36.398438 112.351562 C 37.046875 112.417969 37.691406 112.457031 38.34375 112.480469 C 38.34375 112.78125 38.347656 113.078125 38.351562 113.378906 C 38.351562 113.542969 38.351562 113.710938 38.355469 113.882812 C 38.34375 114.292969 38.34375 114.292969 38.210938 114.421875 C 36.65625 114.535156 35.324219 114.351562 34.066406 113.386719 C 33.949219 113.265625 33.832031 113.144531 33.710938 113.023438 C 33.425781 112.679688 33.425781 112.679688 32.902344 112.738281 C 32.621094 112.949219 32.621094 112.949219 32.351562 113.222656 C 31.546875 113.972656 30.722656 114.4375 29.605469 114.4375 C 29.445312 114.4375 29.445312 114.4375 29.28125 114.4375 C 29.167969 114.4375 29.058594 114.4375 28.941406 114.4375 C 28.832031 114.4375 28.71875 114.4375 28.605469 114.4375 C 28.496094 114.4375 28.390625 114.4375 28.277344 114.4375 C 28.132812 114.4375 28.132812 114.4375 27.980469 114.4375 C 27.71875 114.421875 27.71875 114.421875 27.332031 114.292969 C 27.332031 113.652344 27.332031 113.011719 27.332031 112.351562 C 27.503906 112.359375 27.675781 112.367188 27.851562 112.375 C 29.660156 112.488281 29.660156 112.488281 31.21875 111.703125 C 31.945312 110.839844 32.101562 109.988281 32.042969 108.878906 C 31.9375 108 31.632812 107.5 30.9375 106.953125 C 30.042969 106.324219 29.171875 106.257812 28.105469 106.226562 C 27.9375 106.222656 27.773438 106.214844 27.601562 106.210938 C 27.425781 106.203125 27.253906 106.199219 27.082031 106.195312 C 26.902344 106.1875 26.726562 106.183594 26.550781 106.175781 C 26.121094 106.164062 25.6875 106.152344 25.257812 106.136719 C 25.21875 106.238281 25.179688 106.339844 25.136719 106.445312 C 25.015625 106.746094 24.878906 107 24.707031 107.277344 C 23.234375 109.910156 22.617188 113.40625 23.40625 116.347656 C 23.496094 116.613281 23.597656 116.878906 23.703125 117.140625 C 23.753906 117.257812 23.800781 117.378906 23.851562 117.5 C 24.421875 118.75 25.253906 119.546875 26.425781 120.246094 C 26.351562 120.722656 26.230469 121.050781 25.964844 121.453125 C 25.875 121.585938 25.875 121.585938 25.785156 121.726562 C 25.738281 121.792969 25.695312 121.859375 25.648438 121.929688 C 24.464844 121.800781 23.609375 121.011719 22.878906 120.117188 C 22.71875 119.902344 22.5625 119.6875 22.410156 119.46875 C 22.3125 119.335938 22.3125 119.335938 22.214844 119.199219 C 21.808594 118.589844 21.574219 117.972656 21.375 117.269531 C 21.324219 117.117188 21.277344 116.964844 21.226562 116.808594 C 20.25 112.972656 21.269531 108.871094 23.148438 105.5 C 23.203125 105.410156 23.257812 105.324219 23.316406 105.230469 C 23.355469 105.15625 23.394531 105.082031 23.433594 105.003906 C 23.648438 104.636719 23.808594 104.375 24.226562 104.242188 C 24.554688 104.214844 24.867188 104.214844 25.195312 104.222656 C 25.375 104.222656 25.375 104.222656 25.558594 104.226562 C 25.808594 104.226562 26.0625 104.230469 26.3125 104.234375 C 26.695312 104.246094 27.078125 104.246094 27.460938 104.246094 C 29.023438 104.257812 30.417969 104.328125 31.792969 105.152344 C 31.917969 105.222656 32.042969 105.296875 32.171875 105.371094 C 32.53125 105.632812 32.757812 105.917969 33.03125 106.265625 C 33.117188 106.265625 33.203125 106.265625 33.289062 106.265625 C 33.367188 106.171875 33.441406 106.074219 33.523438 105.972656 C 33.824219 105.601562 34.101562 105.394531 34.503906 105.144531 C 34.625 105.066406 34.742188 104.992188 34.863281 104.914062 C 36.050781 104.269531 37.578125 104.253906 38.882812 104.546875 C 39.589844 104.820312 40.152344 105.214844 40.804688 105.621094 C 40.804688 104.339844 40.804688 103.058594 40.804688 101.738281 C 41.488281 101.738281 42.171875 101.738281 42.875 101.738281 C 42.875 102.589844 42.875 103.445312 42.875 104.324219 C 43.15625 104.324219 43.4375 104.320312 43.726562 104.316406 C 44 104.316406 44.273438 104.3125 44.546875 104.3125 C 44.738281 104.308594 44.925781 104.308594 45.117188 104.304688 C 45.390625 104.304688 45.664062 104.300781 45.9375 104.300781 C 46.101562 104.300781 46.265625 104.296875 46.433594 104.296875 C 47.25 104.347656 47.789062 104.632812 48.445312 105.101562 C 48.402344 104.957031 48.359375 104.808594 48.316406 104.65625 C 48.097656 103.699219 48.171875 102.714844 48.1875 101.738281 C 48.871094 101.738281 49.554688 101.738281 50.257812 101.738281 C 50.257812 102.589844 50.257812 103.445312 50.257812 104.324219 C 50.476562 104.324219 50.691406 104.324219 50.914062 104.320312 C 52.953125 104.308594 54.992188 104.296875 57.03125 104.292969 C 58.082031 104.289062 59.128906 104.285156 60.175781 104.277344 C 61.089844 104.269531 62.003906 104.265625 62.917969 104.265625 C 63.402344 104.265625 63.886719 104.261719 64.371094 104.257812 C 64.910156 104.253906 65.453125 104.25 65.992188 104.253906 C 66.152344 104.25 66.3125 104.246094 66.476562 104.246094 C 67.480469 104.25 68.1875 104.4375 69.042969 104.972656 C 69.019531 104.894531 69 104.816406 68.976562 104.734375 C 68.902344 104.417969 68.898438 104.136719 68.898438 103.808594 C 68.898438 103.6875 68.898438 103.566406 68.902344 103.445312 C 68.902344 103.316406 68.902344 103.191406 68.902344 103.0625 C 68.90625 102.9375 68.90625 102.808594 68.90625 102.679688 C 68.90625 102.363281 68.910156 102.050781 68.910156 101.738281 C 69.554688 101.738281 70.195312 101.738281 70.855469 101.738281 C 70.855469 102.589844 70.855469 103.445312 70.855469 104.324219 C 72.050781 104.324219 73.25 104.324219 74.480469 104.324219 C 74.460938 103.183594 74.460938 103.183594 74.433594 102.046875 C 74.421875 100.703125 74.726562 99.839844 75.519531 98.761719 C 75.609375 98.632812 75.699219 98.507812 75.792969 98.378906 C 76.25 97.84375 76.84375 97.414062 77.460938 97.078125 C 77.632812 97.078125 77.804688 97.078125 77.980469 97.078125 C 77.980469 96.992188 77.980469 96.90625 77.980469 96.820312 C 78.96875 96.457031 79.882812 96.355469 80.933594 96.355469 Z M 80.933594 96.355469 "/>
<path style=" stroke:none;fill-rule:nonzero;fill:rgb(52.156866%,71.372551%,32.549021%);fill-opacity:1;" d="M 5.496094 104.222656 C 5.671875 104.222656 5.851562 104.222656 6.03125 104.222656 C 6.515625 104.222656 7 104.226562 7.484375 104.234375 C 7.992188 104.238281 8.496094 104.238281 9.003906 104.242188 C 9.960938 104.242188 10.921875 104.25 11.878906 104.261719 C 12.972656 104.269531 14.0625 104.277344 15.15625 104.28125 C 17.402344 104.289062 19.644531 104.304688 21.890625 104.324219 C 21.890625 104.921875 21.890625 105.523438 21.890625 106.136719 C 18.300781 106.136719 14.710938 106.136719 11.011719 106.136719 C 11.011719 108.65625 11.011719 111.179688 11.011719 113.773438 C 11.136719 113.773438 11.265625 113.773438 11.398438 113.773438 C 11.429688 113.707031 11.457031 113.636719 11.488281 113.5625 C 11.71875 113.148438 11.988281 112.832031 12.304688 112.480469 C 12.390625 112.480469 12.476562 112.480469 12.566406 112.480469 C 12.597656 112.402344 12.632812 112.324219 12.667969 112.246094 C 13.425781 110.867188 15.804688 109.390625 17.226562 108.726562 C 17.777344 108.640625 18.15625 108.804688 18.652344 109.042969 C 18.78125 109.140625 18.78125 109.140625 18.910156 109.246094 C 18.910156 109.328125 18.910156 109.414062 18.910156 109.503906 C 19.082031 109.503906 19.253906 109.503906 19.429688 109.503906 C 19.464844 110.054688 19.421875 110.476562 19.246094 111 C 19.03125 111.699219 18.914062 112.386719 18.828125 113.109375 C 18.8125 113.246094 18.796875 113.378906 18.777344 113.515625 C 18.59375 115.152344 18.578125 116.789062 18.5625 118.433594 C 18.558594 118.75 18.554688 119.066406 18.550781 119.382812 C 18.539062 120.144531 18.53125 120.90625 18.523438 121.671875 C 17.839844 121.671875 17.15625 121.671875 16.449219 121.671875 C 16.4375 120.675781 16.429688 119.679688 16.421875 118.679688 C 16.417969 118.34375 16.417969 118.007812 16.410156 117.667969 C 16.382812 115.492188 16.496094 113.445312 16.96875 111.316406 C 16.785156 111.4375 16.597656 111.558594 16.414062 111.679688 C 16.257812 111.78125 16.257812 111.78125 16.101562 111.882812 C 15.683594 112.175781 15.3125 112.507812 14.945312 112.859375 C 14.835938 112.960938 14.835938 112.960938 14.726562 113.066406 C 14.523438 113.257812 14.320312 113.453125 14.121094 113.644531 C 14.03125 113.726562 13.941406 113.8125 13.851562 113.898438 C 13.011719 114.703125 12.285156 115.621094 11.632812 116.582031 C 11.382812 116.910156 11.320312 116.996094 10.914062 117.117188 C 10.296875 116.960938 9.527344 116.691406 9.066406 116.234375 C 9.054688 115.921875 9.050781 115.617188 9.050781 115.304688 C 9.050781 115.207031 9.050781 115.109375 9.050781 115.007812 C 9.050781 114.6875 9.054688 114.363281 9.054688 114.039062 C 9.054688 113.816406 9.054688 113.59375 9.054688 113.371094 C 9.054688 112.78125 9.058594 112.195312 9.058594 111.605469 C 9.058594 111.003906 9.058594 110.402344 9.0625 109.804688 C 9.0625 108.625 9.066406 107.445312 9.066406 106.265625 C 7.785156 106.265625 6.503906 106.265625 5.179688 106.265625 C 5.179688 106.351562 5.179688 106.4375 5.179688 106.527344 C 5.054688 106.527344 4.925781 106.527344 4.792969 106.527344 C 4.761719 106.609375 4.726562 106.691406 4.695312 106.777344 C 4.566406 107.09375 4.433594 107.40625 4.296875 107.71875 C 3.085938 110.5 2.253906 114.042969 3.367188 117.011719 C 4.09375 118.511719 4.882812 119.457031 6.347656 120.246094 C 6.265625 120.699219 6.082031 121.003906 5.820312 121.378906 C 5.714844 121.535156 5.714844 121.535156 5.605469 121.691406 C 5.550781 121.769531 5.496094 121.847656 5.441406 121.929688 C 4.046875 121.761719 3.183594 120.769531 2.347656 119.722656 C 2.015625 119.261719 1.777344 118.824219 1.554688 118.304688 C 1.511719 118.230469 1.472656 118.15625 1.429688 118.078125 C 0.0625 115.132812 0.578125 111.273438 1.609375 108.316406 C 2.003906 107.242188 2.515625 106.210938 3.109375 105.230469 C 3.144531 105.15625 3.175781 105.078125 3.210938 105 C 3.710938 104.058594 4.535156 104.203125 5.496094 104.222656 Z M 5.496094 104.222656 "/>
<path style=" stroke:none;fill-rule:nonzero;fill:rgb(98.823529%,99.215686%,98.039216%);fill-opacity:1;" d="M 55.3125 106.136719 C 57.363281 106.136719 59.414062 106.136719 61.527344 106.136719 C 61.570312 110.28125 61.613281 114.425781 61.65625 118.691406 C 61.210938 118.515625 60.855469 118.359375 60.453125 118.113281 C 60.296875 118.019531 60.296875 118.019531 60.136719 117.925781 C 60.027344 117.859375 59.917969 117.792969 59.804688 117.722656 C 59.691406 117.652344 59.574219 117.582031 59.457031 117.511719 C 57.878906 116.558594 56.320312 115.585938 54.792969 114.550781 C 54.992188 113.984375 55.4375 113.695312 55.902344 113.347656 C 55.984375 113.285156 56.066406 113.222656 56.148438 113.15625 C 56.3125 113.03125 56.476562 112.90625 56.636719 112.78125 C 56.9375 112.554688 57.234375 112.324219 57.527344 112.09375 C 57.789062 111.890625 58.035156 111.703125 58.316406 111.53125 C 58.582031 111.328125 58.582031 111.328125 58.632812 110.96875 C 58.660156 110.195312 58.660156 110.195312 58.378906 109.496094 C 58.144531 109.265625 57.894531 109.0625 57.640625 108.855469 C 57.5 108.695312 57.359375 108.535156 57.222656 108.371094 C 56.765625 107.839844 56.273438 107.355469 55.769531 106.875 C 55.613281 106.71875 55.460938 106.558594 55.3125 106.398438 C 55.3125 106.3125 55.3125 106.226562 55.3125 106.136719 Z M 55.3125 106.136719 "/>
<path style=" stroke:none;fill-rule:nonzero;fill:rgb(51.764709%,70.980394%,31.37255%);fill-opacity:1;" d="M 45.207031 1.164062 C 45.351562 1.449219 45.351562 1.449219 45.449219 1.753906 C 45.652344 2.261719 45.652344 2.261719 46.144531 2.523438 C 46.398438 2.558594 46.648438 2.589844 46.902344 2.617188 C 47.851562 2.71875 47.851562 2.71875 48.1875 3.105469 C 48.285156 3.414062 48.285156 3.414062 48.1875 3.753906 C 46.878906 4.953125 44.660156 5.246094 42.976562 5.488281 C 42.355469 5.585938 41.738281 5.707031 41.117188 5.832031 C 41.007812 5.855469 40.894531 5.878906 40.777344 5.902344 C 40.203125 6.015625 40.203125 6.015625 39.628906 6.15625 C 39.234375 6.246094 38.84375 6.226562 38.4375 6.222656 C 38.277344 6.21875 38.113281 6.21875 37.941406 6.21875 C 37.816406 6.214844 37.695312 6.214844 37.566406 6.214844 C 37.566406 6.085938 37.566406 5.957031 37.566406 5.824219 C 37.648438 5.824219 37.734375 5.824219 37.824219 5.824219 C 37.824219 5.609375 37.824219 5.398438 37.824219 5.175781 C 37.746094 5.167969 37.667969 5.160156 37.585938 5.152344 C 37.484375 5.144531 37.378906 5.132812 37.273438 5.121094 C 37.171875 5.109375 37.070312 5.101562 36.964844 5.089844 C 36.65625 5.046875 36.65625 5.046875 36.425781 4.980469 C 35.90625 4.867188 35.367188 4.875 34.835938 4.863281 C 34.261719 4.835938 33.871094 4.761719 33.417969 4.402344 C 33.3125 4.035156 33.3125 4.035156 33.417969 3.625 C 34.46875 2.445312 36.335938 2.078125 37.800781 1.738281 C 37.960938 1.699219 38.125 1.664062 38.292969 1.625 C 44.082031 0.289062 44.082031 0.289062 45.207031 1.164062 Z M 45.207031 1.164062 "/>
<path style=" stroke:none;fill-rule:nonzero;fill:rgb(52.549022%,71.372551%,32.549021%);fill-opacity:1;" d="M 55.699219 1.292969 C 64.019531 2.324219 64.019531 2.324219 66.386719 4.28125 C 66.496094 4.371094 66.605469 4.460938 66.71875 4.554688 C 66.808594 4.636719 66.902344 4.71875 66.996094 4.804688 C 67.324219 5.027344 67.59375 5.148438 67.964844 5.289062 C 68.6875 5.5625 69.316406 5.945312 69.964844 6.367188 C 70.132812 6.472656 70.132812 6.472656 70.300781 6.582031 C 70.894531 6.960938 70.894531 6.960938 71.113281 7.117188 C 71.113281 7.160156 71.113281 7.203125 71.113281 7.25 C 70.367188 7.316406 69.832031 7.132812 69.136719 6.859375 C 68.738281 6.714844 68.347656 6.628906 67.929688 6.542969 C 67.554688 6.457031 67.191406 6.339844 66.824219 6.222656 C 65.417969 5.785156 64.042969 5.519531 62.574219 5.496094 C 61.382812 5.460938 60.429688 4.976562 59.414062 4.382812 C 59.214844 4.269531 59.011719 4.152344 58.808594 4.035156 C 58.679688 3.960938 58.679688 3.960938 58.542969 3.882812 C 58.289062 3.753906 58.050781 3.683594 57.773438 3.625 C 57.773438 3.496094 57.773438 3.367188 57.773438 3.234375 C 57.898438 3.191406 58.027344 3.152344 58.160156 3.105469 C 58.203125 2.976562 58.246094 2.851562 58.289062 2.71875 C 58.203125 2.6875 58.121094 2.652344 58.03125 2.621094 C 57.726562 2.492188 57.433594 2.359375 57.140625 2.207031 C 56.667969 1.96875 56.1875 1.757812 55.699219 1.554688 C 55.699219 1.46875 55.699219 1.382812 55.699219 1.292969 Z M 55.699219 1.292969 "/>
<path style=" stroke:none;fill-rule:nonzero;fill:rgb(52.941179%,71.764708%,33.333334%);fill-opacity:1;" d="M 55.570312 120.503906 C 55.949219 120.738281 56.148438 120.886719 56.347656 121.28125 C 56.386719 122.386719 56.386719 122.386719 55.964844 122.859375 C 55.410156 123.1875 54.910156 123.222656 54.273438 123.09375 C 53.957031 122.800781 53.816406 122.566406 53.625 122.1875 C 53.621094 121.644531 53.675781 121.167969 53.941406 120.691406 C 54.46875 120.394531 54.980469 120.40625 55.570312 120.503906 Z M 55.570312 120.503906 "/>
<path style=" stroke:none;fill-rule:nonzero;fill:rgb(60.392159%,76.078433%,43.921569%);fill-opacity:1;" d="M 21.242188 14.496094 C 21.328125 14.539062 21.414062 14.582031 21.503906 14.625 C 20.347656 15.78125 19.195312 16.933594 18.003906 18.121094 C 17.917969 18.078125 17.835938 18.035156 17.746094 17.992188 C 18.835938 16.75 19.964844 15.546875 21.242188 14.496094 Z M 21.242188 14.496094 "/>
<path style=" stroke:none;fill-rule:nonzero;fill:rgb(68.627453%,81.176472%,54.901963%);fill-opacity:1;" d="M 27.332031 112.351562 C 28.1875 112.394531 29.042969 112.4375 29.921875 112.480469 C 29.921875 112.523438 29.921875 112.566406 29.921875 112.609375 C 29.152344 112.609375 28.382812 112.609375 27.589844 112.609375 C 27.589844 113.121094 27.589844 113.632812 27.589844 114.164062 C 28.445312 114.207031 29.300781 114.25 30.179688 114.292969 C 30.179688 114.335938 30.179688 114.378906 30.179688 114.421875 C 29.777344 114.425781 29.378906 114.429688 28.976562 114.429688 C 28.859375 114.429688 28.746094 114.433594 28.628906 114.433594 C 28.519531 114.433594 28.410156 114.433594 28.296875 114.433594 C 28.195312 114.433594 28.09375 114.4375 27.992188 114.4375 C 27.71875 114.421875 27.71875 114.421875 27.332031 114.292969 C 27.332031 113.652344 27.332031 113.011719 27.332031 112.351562 Z M 27.332031 112.351562 "/>
<path style=" stroke:none;fill-rule:nonzero;fill:rgb(65.098041%,78.823531%,50.196081%);fill-opacity:1;" d="M 87.433594 112.351562 C 87.476562 112.351562 87.519531 112.351562 87.566406 112.351562 C 87.722656 112.960938 87.703125 113.539062 87.695312 114.164062 C 88.25 114.164062 88.804688 114.164062 89.378906 114.164062 C 89.378906 113.609375 89.378906 113.050781 89.378906 112.480469 C 89.421875 112.480469 89.464844 112.480469 89.507812 112.480469 C 89.507812 113.121094 89.507812 113.761719 89.507812 114.421875 C 89.191406 114.425781 88.871094 114.425781 88.542969 114.429688 C 88.445312 114.429688 88.34375 114.433594 88.242188 114.433594 C 88.015625 114.433594 87.789062 114.429688 87.566406 114.421875 C 87.433594 114.292969 87.433594 114.292969 87.421875 113.855469 C 87.421875 113.675781 87.425781 113.492188 87.425781 113.3125 C 87.425781 113.222656 87.429688 113.128906 87.429688 113.035156 C 87.429688 112.804688 87.433594 112.578125 87.433594 112.351562 Z M 87.433594 112.351562 "/>
<path style=" stroke:none;fill-rule:nonzero;fill:rgb(60.000002%,76.078433%,43.137255%);fill-opacity:1;" d="M 29.015625 6.601562 C 29.015625 6.6875 29.015625 6.773438 29.015625 6.859375 C 28.71875 7.011719 28.421875 7.164062 28.125 7.3125 C 28.039062 7.355469 27.957031 7.398438 27.871094 7.445312 C 27.230469 7.765625 27.230469 7.765625 26.941406 7.765625 C 26.941406 7.679688 26.941406 7.59375 26.941406 7.507812 C 26.6875 7.550781 26.429688 7.59375 26.164062 7.636719 C 26.585938 7.285156 27.007812 7.097656 27.519531 6.902344 C 27.660156 6.84375 27.804688 6.789062 27.953125 6.730469 C 28.339844 6.609375 28.617188 6.574219 29.015625 6.601562 Z M 29.015625 6.601562 "/>
<path style=" stroke:none;fill-rule:nonzero;fill:rgb(61.960787%,76.862746%,45.490196%);fill-opacity:1;" d="M 16.449219 14.367188 C 16.535156 14.410156 16.621094 14.453125 16.710938 14.496094 C 15.640625 15.566406 14.574219 16.632812 13.472656 17.734375 C 13.386719 17.691406 13.300781 17.648438 13.210938 17.601562 C 13.953125 16.738281 14.734375 15.960938 15.582031 15.203125 C 15.882812 14.929688 16.167969 14.65625 16.449219 14.367188 Z M 16.449219 14.367188 "/>
<path style=" stroke:none;fill-rule:nonzero;fill:rgb(93.333334%,95.686275%,90.588236%);fill-opacity:1;" d="M 30.179688 59.152344 C 30.265625 59.152344 30.351562 59.152344 30.441406 59.152344 C 30.550781 59.359375 30.65625 59.566406 30.765625 59.773438 C 30.824219 59.890625 30.882812 60.007812 30.945312 60.125 C 31.089844 60.445312 31.089844 60.445312 31.089844 60.835938 C 30.851562 60.828125 30.851562 60.828125 30.570312 60.707031 C 30.285156 60.179688 30.125 59.753906 30.179688 59.152344 Z M 30.179688 59.152344 "/>
<path style=" stroke:none;fill-rule:nonzero;fill:rgb(64.313728%,78.431374%,49.019608%);fill-opacity:1;" d="M 55.699219 1.292969 C 56.011719 1.335938 56.320312 1.375 56.628906 1.414062 C 56.761719 1.433594 56.761719 1.433594 56.894531 1.449219 C 57.363281 1.511719 57.828125 1.582031 58.289062 1.683594 C 58.289062 1.726562 58.289062 1.769531 58.289062 1.8125 C 57.820312 1.8125 57.351562 1.8125 56.867188 1.8125 C 56.90625 1.898438 56.949219 1.984375 56.996094 2.070312 C 56.800781 2.015625 56.609375 1.960938 56.421875 1.902344 C 56.3125 1.871094 56.207031 1.839844 56.097656 1.804688 C 55.964844 1.746094 55.964844 1.746094 55.828125 1.683594 C 55.785156 1.554688 55.742188 1.425781 55.699219 1.292969 Z M 55.699219 1.292969 "/>
<path style=" stroke:none;fill-rule:nonzero;fill:rgb(62.352943%,77.254903%,46.27451%);fill-opacity:1;" d="M 13.988281 110.925781 C 14.074219 110.96875 14.160156 111.011719 14.25 111.054688 C 13.566406 111.738281 12.878906 112.421875 12.175781 113.128906 C 12.089844 113.085938 12.003906 113.042969 11.917969 112.996094 C 12.09375 112.738281 12.09375 112.738281 12.304688 112.480469 C 12.390625 112.480469 12.476562 112.480469 12.566406 112.480469 C 12.613281 112.367188 12.613281 112.367188 12.660156 112.25 C 12.847656 111.917969 13.058594 111.730469 13.351562 111.484375 C 13.441406 111.40625 13.535156 111.328125 13.628906 111.25 C 13.742188 111.152344 13.742188 111.152344 13.859375 111.054688 C 13.902344 111.011719 13.945312 110.972656 13.988281 110.925781 Z M 13.988281 110.925781 "/>
<path style=" stroke:none;fill-rule:nonzero;fill:rgb(70.588237%,82.352942%,58.039218%);fill-opacity:1;" d="M 34.457031 107.949219 C 34.5 108.035156 34.542969 108.121094 34.585938 108.207031 C 34.523438 108.371094 34.523438 108.371094 34.464844 108.539062 C 34.234375 109.285156 34.261719 110.042969 34.457031 110.796875 C 34.195312 110.667969 34.195312 110.667969 34.066406 110.28125 C 34.003906 109.417969 33.964844 108.683594 34.457031 107.949219 Z M 34.457031 107.949219 "/>
<path style=" stroke:none;fill-rule:nonzero;fill:rgb(60.000002%,75.686276%,42.745098%);fill-opacity:1;" d="M 52.980469 113.128906 C 53.066406 113.128906 53.148438 113.128906 53.238281 113.128906 C 53.195312 113.195312 53.152344 113.261719 53.109375 113.328125 C 52.933594 113.753906 52.949219 114.109375 52.953125 114.566406 C 52.957031 114.808594 52.957031 114.808594 52.957031 115.054688 C 52.953125 115.445312 52.953125 115.445312 53.109375 115.714844 C 52.980469 115.671875 52.851562 115.628906 52.71875 115.585938 C 52.714844 115.226562 52.707031 114.863281 52.703125 114.503906 C 52.703125 114.398438 52.699219 114.296875 52.699219 114.191406 C 52.695312 113.921875 52.707031 113.65625 52.71875 113.386719 C 52.804688 113.300781 52.890625 113.214844 52.980469 113.128906 Z M 52.980469 113.128906 "/>
<path style=" stroke:none;fill-rule:nonzero;fill:rgb(61.960787%,76.862746%,45.490196%);fill-opacity:1;" d="M 76.8125 97.464844 C 76.898438 97.507812 76.984375 97.550781 77.074219 97.59375 C 76.644531 98.023438 76.21875 98.449219 75.777344 98.890625 C 75.691406 98.847656 75.605469 98.804688 75.519531 98.761719 C 75.917969 98.257812 76.296875 97.851562 76.8125 97.464844 Z M 76.8125 97.464844 "/>
<path style=" stroke:none;fill-rule:nonzero;fill:rgb(66.274512%,79.607844%,51.764709%);fill-opacity:1;" d="M 30.3125 47.503906 C 30.625 47.550781 30.625 47.550781 30.957031 47.632812 C 31 47.71875 31.042969 47.804688 31.089844 47.890625 C 30.941406 47.878906 30.941406 47.878906 30.789062 47.867188 C 30.4375 47.851562 30.4375 47.851562 30.261719 48.085938 C 30.050781 48.28125 30.050781 48.28125 29.574219 48.304688 C 29.363281 48.292969 29.363281 48.292969 29.144531 48.28125 C 29.144531 48.238281 29.144531 48.195312 29.144531 48.148438 C 29.265625 48.140625 29.386719 48.128906 29.507812 48.117188 C 29.933594 48.058594 29.933594 48.058594 30.164062 47.753906 C 30.214844 47.671875 30.261719 47.589844 30.3125 47.503906 Z M 30.3125 47.503906 "/>
<path style=" stroke:none;fill-rule:nonzero;fill:rgb(59.607846%,75.686276%,42.745098%);fill-opacity:1;" d="M 82.640625 109.632812 C 82.441406 110.125 82.128906 110.441406 81.734375 110.796875 C 81.648438 110.796875 81.566406 110.796875 81.476562 110.796875 C 81.675781 110.308594 82.066406 109.632812 82.640625 109.632812 Z M 82.640625 109.632812 "/>
<path style=" stroke:none;fill-rule:nonzero;fill:rgb(61.56863%,76.862746%,45.09804%);fill-opacity:1;" d="M 34.328125 105.230469 C 34.410156 105.273438 34.496094 105.316406 34.585938 105.359375 C 34.199219 105.746094 33.816406 106.128906 33.417969 106.527344 C 33.292969 106.484375 33.164062 106.441406 33.03125 106.398438 C 33.441406 105.976562 33.859375 105.589844 34.328125 105.230469 Z M 34.328125 105.230469 "/>
<path style=" stroke:none;fill-rule:nonzero;fill:rgb(87.450981%,92.156863%,81.960785%);fill-opacity:1;" d="M 84.066406 110.925781 C 84.152344 110.96875 84.238281 111.011719 84.328125 111.054688 C 84.160156 111.230469 83.992188 111.402344 83.824219 111.574219 C 83.730469 111.671875 83.636719 111.765625 83.542969 111.867188 C 83.289062 112.09375 83.289062 112.09375 83.03125 112.09375 C 83.234375 111.539062 83.613281 111.28125 84.066406 110.925781 Z M 84.066406 110.925781 "/>
<path style=" stroke:none;fill-rule:nonzero;fill:rgb(61.176473%,76.47059%,44.705883%);fill-opacity:1;" d="M 23.316406 13.203125 C 23.277344 13.445312 23.277344 13.445312 23.1875 13.71875 C 23.058594 13.804688 22.929688 13.890625 22.796875 13.980469 C 22.796875 13.894531 22.796875 13.808594 22.796875 13.71875 C 22.585938 13.804688 22.371094 13.890625 22.148438 13.980469 C 22.90625 13.203125 22.90625 13.203125 23.316406 13.203125 Z M 23.316406 13.203125 "/>
<path style=" stroke:none;fill-rule:nonzero;fill:rgb(64.313728%,78.431374%,49.019608%);fill-opacity:1;" d="M 29.015625 6.601562 C 29.015625 6.6875 29.015625 6.773438 29.015625 6.859375 C 28.566406 7.050781 28.566406 7.050781 28.109375 7.25 C 28.109375 7.164062 28.109375 7.078125 28.109375 6.988281 C 28.023438 6.945312 27.9375 6.902344 27.851562 6.859375 C 28.253906 6.621094 28.546875 6.574219 29.015625 6.601562 Z M 29.015625 6.601562 "/>
<path style=" stroke:none;fill-rule:nonzero;fill:rgb(62.7451%,77.254903%,46.666667%);fill-opacity:1;" d="M 34.195312 2.976562 C 34.28125 3.019531 34.367188 3.0625 34.457031 3.105469 C 34.332031 3.222656 34.210938 3.339844 34.082031 3.460938 C 33.789062 3.753906 33.570312 4.007812 33.417969 4.402344 C 33.371094 4.054688 33.371094 4.054688 33.417969 3.625 C 33.65625 3.355469 33.902344 3.183594 34.195312 2.976562 Z M 34.195312 2.976562 "/>
<path style=" stroke:none;fill-rule:nonzero;fill:rgb(65.098041%,78.823531%,50.588238%);fill-opacity:1;" d="M 47.667969 28.734375 C 47.710938 28.820312 47.753906 28.90625 47.796875 28.992188 C 47.539062 28.988281 47.285156 28.984375 47.027344 28.980469 C 46.734375 28.984375 46.734375 28.984375 46.375 29.125 C 46.414062 28.996094 46.457031 28.867188 46.503906 28.734375 C 46.90625 28.53125 47.238281 28.648438 47.667969 28.734375 Z M 47.667969 28.734375 "/>
<path style=" stroke:none;fill-rule:nonzero;fill:rgb(87.843138%,92.54902%,82.745099%);fill-opacity:1;" d="M 90.804688 110.925781 C 90.636719 111.296875 90.46875 111.570312 90.15625 111.832031 C 90.070312 111.832031 89.984375 111.832031 89.894531 111.832031 C 90.304688 110.925781 90.304688 110.925781 90.804688 110.925781 Z M 90.804688 110.925781 "/>
<path style=" stroke:none;fill-rule:nonzero;fill:rgb(83.92157%,90.196079%,76.862746%);fill-opacity:1;" d="M 8.9375 63.941406 C 8.980469 63.941406 9.023438 63.941406 9.066406 63.941406 C 9.109375 64.367188 9.152344 64.796875 9.195312 65.234375 C 9.113281 65.234375 9.027344 65.234375 8.9375 65.234375 C 8.851562 65.023438 8.765625 64.808594 8.679688 64.589844 C 8.722656 64.589844 8.765625 64.589844 8.808594 64.589844 C 8.851562 64.375 8.894531 64.160156 8.9375 63.941406 Z M 8.9375 63.941406 "/>
<path style=" stroke:none;fill-rule:nonzero;fill:rgb(84.313726%,90.588236%,77.254903%);fill-opacity:1;" d="M 48.1875 103.9375 C 48.425781 104.34375 48.472656 104.632812 48.445312 105.101562 C 48.125 104.972656 48.125 104.972656 47.796875 104.84375 C 47.925781 104.800781 48.054688 104.757812 48.1875 104.714844 C 48.1875 104.457031 48.1875 104.203125 48.1875 103.9375 Z M 48.1875 103.9375 "/>
<path style=" stroke:none;fill-rule:nonzero;fill:rgb(63.921571%,78.039217%,48.627451%);fill-opacity:1;" d="M 42.226562 18.25 C 42.035156 18.742188 41.742188 18.976562 41.320312 19.285156 C 41.683594 18.25 41.683594 18.25 42.226562 18.25 Z M 42.226562 18.25 "/>
<path style=" stroke:none;fill-rule:nonzero;fill:rgb(63.529414%,78.039217%,47.843137%);fill-opacity:1;" d="M 71.113281 7.117188 C 71.113281 7.160156 71.113281 7.203125 71.113281 7.25 C 70.253906 7.28125 70.253906 7.28125 69.820312 6.988281 C 70.34375 6.839844 70.625 6.882812 71.113281 7.117188 Z M 71.113281 7.117188 "/>
<path style=" stroke:none;fill-rule:nonzero;fill:rgb(82.352942%,89.411765%,74.901962%);fill-opacity:1;" d="M 30.179688 59.152344 C 30.265625 59.152344 30.351562 59.152344 30.441406 59.152344 C 30.527344 59.367188 30.613281 59.578125 30.699219 59.800781 C 30.570312 59.925781 30.441406 60.054688 30.3125 60.1875 C 30.269531 59.847656 30.226562 59.503906 30.179688 59.152344 Z M 30.179688 59.152344 "/>
<path style=" stroke:none;fill-rule:nonzero;fill:rgb(62.7451%,77.64706%,46.666667%);fill-opacity:1;" d="M 75.257812 8.929688 C 75.699219 9.078125 75.785156 9.207031 76.035156 9.578125 C 75.992188 9.664062 75.949219 9.75 75.90625 9.835938 C 75.65625 9.75 75.65625 9.75 75.386719 9.578125 C 75.292969 9.238281 75.292969 9.238281 75.257812 8.929688 Z M 75.257812 8.929688 "/>
</g>
</svg>
